<svg width="2000" height="2000" viewBox="0 0 2000 2000" fill="none" xmlns="http://www.w3.org/2000/svg">
<path d="M1002.55 16.1346C957.189 13.0279 868.337 64.5994 811.795 78.269C797.297 80.9615 755.377 87.8377 703.681 93.8026C639.061 101.259 537.782 170.228 524.113 190.732C510.443 211.237 391.766 297.603 365.049 315.622C338.331 333.641 246.993 439.27 217.169 479.036C187.344 518.802 151.306 577.83 113.404 750.563C75.5024 923.297 77.3663 848.114 58.726 957.471C40.0857 1066.83 80.4731 1191.72 112.162 1240.8C143.85 1289.89 131.423 1360.1 135.151 1480.02C138.879 1599.94 255.071 1676.99 296.701 1709.92C338.331 1742.85 470.677 1852.21 505.472 1867.74C540.268 1883.27 671.992 1903.78 740.962 1915.58C809.931 1927.39 864.609 1967.15 914.938 1979.58C965.267 1992.01 1041.69 1976.47 1110.04 1954.73C1178.39 1932.98 1262.27 1952.86 1363.55 1929.87C1464.83 1906.88 1590.96 1809.95 1649.99 1752.79C1709.02 1695.63 1786.68 1571.36 1804.08 1540.91C1821.48 1510.47 1824.59 1452.68 1825.83 1396.14C1827.07 1339.6 1850.68 1282.43 1872.43 1245.15C1894.18 1207.87 1937.05 1146.36 1945.13 1107.84C1953.2 1069.31 1931.46 1041.97 1907.22 999.101C1882.99 956.228 1891.69 882.909 1893.55 796.543C1895.42 710.176 1871.81 701.477 1835.15 558.568C1798.49 415.659 1739.46 382.728 1692.24 322.457C1645.02 262.187 1559.89 226.77 1418.23 196.946C1276.56 167.121 1185.22 89.4532 1147.32 55.9006C1109.42 22.348 1047.91 19.2413 1002.55 16.1346Z" fill="#77F93A"/>
<path d="M580.655 717.01C560.151 713.903 515.414 752.427 502.366 761.747C486.211 799.856 455.765 886.389 463.221 927.646C472.541 979.217 481.862 973.625 499.88 1029.55C517.899 1085.47 526.598 1087.33 575.685 1132.07C624.771 1176.8 635.955 1197.93 660.809 1237.7C685.662 1277.46 637.819 1258.82 575.685 1227.75C513.55 1196.69 537.782 1175.56 513.55 1107.84C489.318 1040.11 498.638 1091.06 481.862 1122.13C465.085 1153.19 549.588 1270.63 575.685 1293C601.781 1315.36 595.568 1260.69 709.273 1350.16C822.979 1439.63 934.2 1412.92 991.985 1403.6C1049.77 1394.28 1072.76 1325.93 1101.34 1270.63C1129.92 1215.33 1126.82 1228.38 1165.96 1217.19C1205.11 1206.01 1089.54 1379.36 1057.23 1412.92C1024.92 1446.47 1040.45 1446.47 1039.21 1476.29C1037.96 1506.12 1086.43 1479.4 1110.66 1469.46C1134.89 1459.52 1120.6 1445.23 1110.66 1403.6C1100.72 1361.97 1289.61 1291.75 1328.13 1256.34C1366.66 1220.92 1351.74 1222.16 1349.26 1161.89C1346.77 1101.62 1292.72 1079.25 1273.45 1050.67C1254.19 1022.09 1233.69 991.023 1245.49 953.121C1257.3 915.219 1290.85 953.121 1339.94 948.15C1389.02 943.179 1395.24 951.878 1385.92 907.141C1376.6 862.405 1340.56 765.475 1318.81 738.136C1297.06 710.797 1275.32 715.767 1220.02 725.088C1164.72 734.408 1082.08 722.602 1051.63 725.088C1021.19 727.573 955.947 717.01 947.248 692.778C938.549 668.545 950.355 651.148 940.413 597.091C930.472 543.034 1033.61 463.502 988.257 467.851C942.899 472.201 931.093 479.657 879.522 496.433C827.95 513.209 834.164 498.297 789.427 503.889C744.69 509.481 545.86 594.605 550.209 618.217C554.559 641.828 577.549 635.614 614.208 631.886C650.867 628.158 698.711 631.886 716.108 665.439C733.506 698.991 708.031 710.797 681.934 751.184C655.838 791.571 655.838 795.921 620.421 817.668C585.005 839.415 584.383 828.231 600.538 776.038C616.693 723.845 601.16 720.117 580.655 717.01Z" fill="#78FF39"/>
<path d="M839.445 1087.95C840.439 1109.33 871.755 1129.89 879.522 1125.86C887.289 1121.82 886.526 1113.31 892.881 1107.21C900.647 1099.76 905.419 1098.61 915.56 1100.38C927.987 1102.55 951.598 1129.27 965.267 1130.2C976.115 1130.94 1021.67 1132.91 1041.69 1121.2C1058.16 1111.56 1174.66 1023.33 1185.22 954.364C1195.97 884.175 1169.38 867.065 1136.45 819.222C1103.52 771.379 1062.82 755.534 1055.98 750.563C1049.15 745.593 1123.09 763.612 1168.45 783.495C1213.8 803.378 1284.64 876.075 1269.73 981.703C1254.81 1087.33 1201.38 1135.18 1180.25 1163.76C1159.13 1192.34 1152.91 1181.78 1135.52 1196.69C1118.12 1211.6 1114.39 1215.95 1101.96 1228.38C1089.54 1240.8 1065.3 1231.48 1061.58 1228.38C1057.85 1225.27 1051.01 1215.95 1078.97 1199.8C1092.02 1199.8 1089.54 1181.15 1101.96 1163.76C1114.39 1146.36 1118.12 1146.36 1135.52 1130.2C1152.91 1114.05 1164.1 1110.32 1180.25 1095.41C1196.41 1080.5 1201.38 1067.45 1201.38 1043.84C1201.38 1020.23 1199.51 1030.17 1185.22 1043.84C1170.93 1057.51 1157.26 1087.33 1141.11 1100.38C1124.95 1113.43 1115.01 1130.2 1078.97 1135.18C1042.94 1140.15 1047.28 1146.36 1044.18 1163.76C1052.26 1170.59 1051.01 1173.08 1047.28 1177.43C1043.56 1181.78 1040.45 1190.47 1023.67 1196.69C1006.9 1202.9 975.83 1199.8 955.326 1196.69C934.821 1193.58 918.666 1186.75 901.89 1186.13C885.114 1185.5 895.055 1191.72 898.783 1199.8C902.511 1207.87 919.288 1221.54 927.365 1236.45C935.443 1251.37 922.394 1247.64 909.346 1242.67C896.298 1237.7 886.356 1228.38 880.143 1215.95C873.93 1203.52 869.693 1177.35 871.444 1156.92C872.376 1146.05 868.648 1142.94 862.124 1135.18C857.312 1129.45 849.076 1131.45 847.212 1135.18C845.189 1139.22 846.59 1155.68 847.212 1168.73C847.833 1181.78 838.513 1180.84 835.406 1177.43C832.451 1174.18 820.494 1155.06 811.174 1130.2C801.854 1105.35 803.267 1062.54 807.446 1047.57C811.174 1034.21 846.59 972.383 880.143 961.199C913.696 950.015 939.792 992.888 951.598 998.48C963.403 1004.07 970.859 1008.42 975.83 998.48C980.801 988.538 960.918 972.383 959.675 961.199C958.432 950.015 972.723 940.695 983.286 940.695C993.849 940.695 1010.63 979.839 1014.35 986.053C1018.08 992.266 1027.4 979.218 1027.4 954.364C1027.4 929.511 991.985 932.617 933.579 930.132C875.172 927.646 916.181 936.345 839.756 951.258C763.33 966.17 750.903 980.461 729.156 1043.84C707.409 1107.21 743.447 1176.18 758.981 1215.95C774.515 1255.72 774.515 1240.18 797.504 1258.82C820.494 1277.46 844.105 1264.41 865.231 1270.63C886.356 1276.84 867.095 1299.83 875.794 1325.93C884.492 1352.02 916.181 1319.09 975.83 1325.93C1035.48 1332.76 1068.41 1289.89 1089.54 1288.03C1110.66 1286.16 1101.96 1293 1095.13 1299.83C1088.29 1306.67 1047.28 1326.55 1047.28 1337.73C1047.28 1348.92 1080.22 1324.06 1108.18 1307.91C1136.14 1291.75 1139.86 1299.83 1135.52 1312.88C1131.17 1325.93 1121.85 1328.41 1101.96 1345.19C1082.08 1361.97 1055.36 1373.77 1013.73 1393.03C972.102 1412.29 892.57 1401.73 880.764 1401.11C868.959 1400.49 851.561 1375.64 844.105 1354.51C836.649 1333.38 852.183 1311.02 827.329 1299.83C802.475 1288.65 718.594 1252.61 704.303 1228.38C690.012 1204.14 670.129 1116.54 668.265 1087.33C666.401 1058.13 673.235 1005.31 690.633 972.383C708.031 939.452 747.797 884.774 784.456 858.677C821.115 832.581 1027.4 838.794 1040.45 840.037C1053.5 841.28 1067.17 863.027 1044.18 858.677C1021.19 854.328 993.228 866.755 995.092 876.075C996.956 885.395 1027.4 878.56 1051.01 897.822C1074.62 917.084 1091.4 958.092 1083.94 992.888C1076.49 1027.68 1013.73 1042.6 983.286 1043.84C952.84 1045.08 901.269 1007.18 886.356 1018.36C871.444 1029.55 838.202 1061.24 839.445 1087.95Z" fill="#1D8F0B"/>
<path d="M310.992 1206.63C309.749 1202.9 276.197 1017.12 302.293 1005.31C328.389 993.509 333.982 1023.33 340.816 1005.31C347.651 987.295 344.545 969.277 363.806 938.831C383.068 908.385 388.66 877.318 396.737 898.443C404.815 919.569 401.708 931.996 396.737 968.655C391.767 1005.31 384.311 1036.38 376.854 1063.72C369.398 1091.06 340.816 1150.09 340.816 1170.59C340.816 1191.1 333.982 1212.22 334.603 1232.1C335.224 1251.99 351.379 1297.97 360.699 1306.04C370.02 1314.12 394.873 1332.76 404.194 1352.65C413.514 1372.53 442.717 1407.32 457.008 1419.75C471.299 1432.18 493.667 1445.85 514.171 1458.27C534.676 1470.7 619.8 1543.4 648.382 1549.61C676.964 1555.83 753.389 1588.76 785.699 1602.43C818.009 1616.1 877.658 1648.41 897.541 1658.97C917.424 1669.53 944.141 1669.53 967.131 1673.88C990.121 1678.23 1010 1676.37 1008.14 1693.76C1006.28 1711.16 975.83 1721.1 954.704 1714.27C933.579 1707.43 894.434 1682.58 885.735 1678.23C877.036 1673.88 906.239 1699.36 904.375 1706.81C902.511 1714.27 891.327 1703.71 875.172 1693.76C859.017 1683.82 852.804 1669.53 833.542 1662.7C814.281 1655.86 776.379 1651.51 771.408 1655.24C766.437 1658.97 772.029 1662.7 790.669 1673.88C809.31 1685.06 827.95 1703.08 836.649 1714.27C845.348 1725.45 859.017 1752.17 863.367 1771.43C867.716 1790.69 881.386 1810.58 885.735 1824.87C890.085 1839.16 916.181 1863.39 927.987 1873.95C939.792 1884.52 946.005 1888.87 962.782 1890.11C979.558 1891.35 984.529 1895.08 996.334 1890.11C1008.14 1885.14 1019.32 1880.17 1029.27 1870.23C1039.21 1860.28 1065.3 1860.91 1084.57 1857.8C1103.83 1854.69 1116.25 1864.63 1130.54 1847.86C1144.84 1831.08 1154.78 1827.97 1163.48 1809.33C1172.17 1790.69 1182.12 1775.16 1184.6 1760.87L1184.72 1760.19C1187.16 1746.14 1189.49 1732.76 1184.6 1723.59C1179.63 1714.27 1170.31 1707.43 1150.43 1702.46C1130.54 1697.49 1113.15 1695.63 1098.86 1696.87C1084.57 1698.11 1069.03 1702.46 1054.12 1706.81C1039.21 1711.16 1027.4 1717.37 1011.87 1723.59C996.334 1729.8 1019.32 1698.11 1034.86 1690.04C1050.39 1681.96 1070.27 1668.91 1084.57 1658.97C1098.86 1649.03 1184.6 1599.94 1213.8 1591.24C1243.01 1582.54 1287.74 1571.36 1310.73 1569.49C1333.72 1567.63 1348.02 1581.92 1369.14 1560.8C1390.27 1539.67 1403.31 1528.49 1418.85 1513.57C1434.38 1498.66 1490.92 1443.36 1509.56 1425.34C1528.2 1407.32 1544.98 1388.68 1557.41 1374.39C1569.83 1360.1 1582.26 1347.67 1588.48 1355.75C1594.69 1363.83 1605.87 1381.85 1588.48 1403.6C1571.08 1425.34 1535.04 1458.27 1546.22 1460.14C1557.41 1462 1592.82 1417.27 1602.77 1403.6C1612.71 1389.93 1631.35 1354.51 1644.4 1338.98C1657.44 1323.44 1670.49 1297.97 1681.68 1284.3C1692.86 1270.63 1695.35 1251.99 1715.23 1247.64C1735.11 1243.29 1742.57 1248.88 1735.11 1268.14C1727.66 1287.4 1716.47 1313.5 1711.5 1324.69C1706.53 1335.87 1621.41 1449.58 1612.09 1460.14C1602.77 1470.7 1504.59 1536.56 1497.76 1556.45C1490.92 1576.33 1478.5 1585.65 1486.57 1603.05C1494.65 1620.44 1504.59 1629.14 1497.76 1640.33C1490.92 1651.51 1471.66 1662.7 1453.02 1670.77C1434.38 1678.85 1401.45 1701.22 1418.85 1678.85C1436.25 1656.48 1450.54 1651.51 1448.05 1640.33C1445.57 1629.14 1444.94 1631.63 1423.82 1635.98C1402.69 1640.33 1375.35 1655.24 1338.69 1660.83C1302.04 1666.42 1293.34 1662.08 1271.59 1673.88C1249.84 1685.69 1231.2 1707.43 1231.82 1690.66C1232.45 1673.88 1239.9 1663.94 1254.19 1652.13C1268.48 1640.33 1284.02 1619.82 1257.92 1627.9C1231.82 1635.98 1151.05 1630.39 1142.35 1652.13C1133.65 1673.88 1130.54 1675.74 1150.43 1683.2C1170.31 1690.66 1197.03 1703.08 1217.53 1706.81C1238.04 1710.54 1263.51 1721.1 1275.32 1727.94C1287.12 1734.77 1314.46 1730.42 1316.95 1752.17C1319.43 1773.92 1309.49 1820.52 1239.9 1852.21C1170.31 1883.89 1090.78 1905.64 1051.01 1905.02C1011.25 1904.4 907.482 1896.32 889.463 1885.76C876.001 1879.13 844.229 1863.14 824.843 1852.21C800.611 1838.54 771.408 1840.4 771.408 1824.87C771.408 1809.33 773.893 1819.9 790.669 1819.9C807.446 1819.9 812.417 1824.25 809.31 1803.12C806.203 1781.99 808.067 1772.67 799.368 1752.17C790.669 1731.67 777 1721.72 765.816 1719.86C754.632 1718 738.477 1717.37 723.564 1709.92C708.652 1702.46 660.809 1665.8 654.595 1658.97C648.382 1652.13 614.829 1626.04 632.848 1627.9C650.867 1629.77 681.313 1652.13 699.953 1652.13C718.594 1652.13 749.661 1665.18 741.583 1652.13C733.506 1639.09 682.556 1616.1 676.964 1612.37C671.371 1608.64 500.502 1474.43 488.075 1464.49C475.648 1454.55 459.493 1445.85 447.688 1443.98C435.882 1442.12 442.717 1452.68 445.202 1462C447.688 1471.32 445.824 1473.81 462.6 1491.83C479.376 1509.85 475.648 1515.44 499.259 1537.81C522.87 1560.17 537.161 1573.22 553.316 1596.83C569.471 1620.44 580.034 1629.14 585.005 1638.46C589.975 1647.78 588.111 1662.7 573.82 1645.3C559.53 1627.9 545.239 1623.55 524.734 1596.83C504.23 1570.12 468.813 1550.23 457.008 1532.21C445.202 1514.2 428.426 1505.5 411.65 1486.86C394.873 1468.22 386.796 1464.49 370.641 1435.91C354.486 1407.32 344.545 1396.14 341.438 1384.96C338.331 1373.77 341.438 1358.86 341.438 1355.75C341.438 1355.13 341.213 1354.48 340.994 1354.01C340.283 1352.92 340.632 1353.23 340.994 1354.01C341.997 1355.54 345.104 1359.83 353.243 1369.42C370.641 1389.93 366.913 1394.9 389.281 1398.63C411.65 1402.35 415.999 1398 411.65 1388.06C407.3 1378.12 393.631 1367.56 386.796 1357.62C379.961 1347.67 336.467 1278.08 331.496 1266.28C326.526 1254.47 320.933 1233.97 317.827 1223.41C315.341 1214.96 312.235 1208.7 310.992 1206.63Z" fill="#1D8F0B"/>
<path d="M459.493 1027.68C461.978 1066.83 466.949 1071.49 472.541 1083.91C465.5 1078.32 454.15 1064.34 447.688 1049.43C439.61 1030.79 440.853 1020.23 435.261 991.023C430.787 967.661 437.125 928.682 440.853 912.113V877.939C440.853 870.483 454.522 851.842 466.328 835.066C478.133 818.29 474.405 812.076 477.512 791.572C480.619 771.068 481.24 762.369 483.104 740C484.968 717.632 486.211 714.525 487.454 692.778C488.696 671.031 501.123 656.74 509.822 642.449C518.52 628.158 525.356 618.217 530.947 593.984C536.539 569.752 518.52 574.102 509.822 575.344C501.123 576.587 498.016 610.761 498.016 621.945C498.016 633.129 486.832 653.634 474.405 669.167C461.979 684.701 447.687 697.128 430.911 710.176C414.135 723.224 411.028 741.243 407.921 754.913C404.814 768.582 412.271 802.756 414.135 826.988C415.999 851.221 401.708 841.901 386.175 848.114C370.641 854.328 382.447 831.338 383.068 802.756C383.565 779.891 385.346 769.203 386.175 766.718C380.582 769.618 368.28 771.316 363.806 754.913C358.214 734.408 355.729 740 369.398 727.573C383.068 715.147 413.514 668.546 425.319 661.09C437.124 653.634 442.717 649.284 425.319 642.449C407.921 635.615 404.193 639.964 407.921 630.644C411.649 621.324 425.94 618.217 430.911 605.169C435.882 592.12 434.018 572.237 430.911 553.597C427.804 534.957 437.746 531.85 447.687 506.996C457.629 482.143 495.531 491.463 518.52 479.657C541.51 467.852 559.529 489.599 595.567 491.463C631.605 493.327 662.672 461.017 686.283 449.833C709.894 438.648 731.02 430.571 734.748 416.901C738.476 403.232 723.564 400.125 726.671 383.349C729.777 366.573 842.241 366.573 862.124 367.815C882.007 369.058 877.036 373.407 869.58 393.29C862.124 413.173 836.027 408.203 829.192 430.571C822.358 452.939 844.726 449.833 887.599 461.017C930.471 472.201 963.403 428.086 972.102 421.251C980.8 414.416 1000.06 385.834 1011.87 373.407C1023.67 360.981 1037.34 364.087 1058.47 360.359C1079.59 356.631 1115.01 393.912 1135.51 408.203C1156.02 422.494 1141.73 416.28 1129.92 413.173C1118.12 410.067 1082.7 401.368 1069.65 400.125C1056.6 398.882 1049.15 408.824 1058.47 421.251C1067.79 433.678 1123.09 456.046 1141.73 469.716C1160.37 483.385 1170.31 475.308 1167.82 469.716C1165.34 464.124 1156.02 461.017 1158.5 449.833C1160.99 438.648 1205.73 456.667 1221.26 461.017C1236.79 465.366 1280.29 499.54 1303.28 515.074C1326.27 530.607 1307.01 530.607 1299.55 530.607C1292.09 530.607 1277.18 518.802 1261.03 511.967C1244.87 505.132 1220.64 488.977 1205.73 506.996C1190.81 525.015 1307.01 588.392 1311.98 597.713C1316.95 607.033 1318.81 585.907 1318.81 578.451C1318.81 570.995 1327.51 564.781 1334.97 570.995C1342.42 577.208 1353.61 606.411 1371.63 631.265C1389.64 656.119 1430.65 718.875 1439.35 757.398C1448.05 795.921 1446.19 822.018 1446.19 835.687C1446.19 849.357 1449.29 890.366 1446.19 908.385C1443.08 926.404 1423.2 945.044 1423.2 928.889C1423.2 912.734 1424.44 874.832 1423.2 853.706C1421.95 832.581 1412.01 822.639 1403.94 822.018C1395.86 821.396 1393.99 886.016 1400.83 908.385C1407.66 930.753 1400.83 939.452 1387.78 935.724C1374.73 931.996 1375.98 894.094 1371.63 869.24C1367.28 844.386 1363.55 833.823 1359.2 807.105C1354.85 780.388 1356.71 777.902 1353.61 765.475C1350.5 753.049 1338.07 730.68 1324.4 714.525C1310.73 698.37 1303.9 672.895 1299.55 658.604C1295.2 644.313 1299.55 641.828 1307.01 646.177C1314.46 650.527 1329.37 672.895 1344.91 694.642C1360.44 716.389 1373.49 736.894 1382.19 754.291C1390.89 771.689 1401.45 771.689 1400.83 765.475C1400.21 759.262 1400.21 748.078 1393.99 730.68C1387.78 713.283 1374.11 693.4 1363.55 672.895C1352.99 652.391 1329.37 638.1 1318.81 626.916C1308.25 615.732 1289.61 607.033 1280.29 597.713C1270.97 588.392 1244.87 576.587 1228.1 564.781C1211.32 552.976 1215.05 560.432 1198.27 564.781C1181.49 569.131 1152.91 564.781 1135.51 560.432C1118.12 556.083 1092.02 531.85 1074.62 530.607C1057.23 529.365 1002.55 514.452 980.8 506.996C959.053 499.54 959.675 508.239 972.102 518.802C984.528 529.365 1003.17 537.442 1011.87 543.034C1020.57 548.626 1005.03 549.248 987.014 543.034C968.995 536.821 959.675 528.743 936.064 518.802C912.453 508.86 918.045 515.695 914.317 518.802C910.589 521.909 927.365 531.229 944.762 543.034C962.16 554.84 960.917 557.325 959.675 564.781C958.432 572.237 944.762 564.781 927.365 553.597C909.967 542.413 860.26 544.277 820.494 537.442C780.728 530.607 713.622 551.733 655.837 564.781C598.052 577.83 563.257 623.188 542.753 656.74C522.249 690.293 509.2 734.408 509.822 778.524C510.443 822.639 532.19 815.804 530.947 831.338C529.705 846.871 523.491 937.588 512.928 1009.66C502.366 1081.74 516.035 1186.13 558.286 1281.81C600.538 1377.5 639.683 1387.44 660.808 1409.81C677.709 1427.7 676.963 1429.28 674.478 1427.83C670.75 1427.41 657.329 1423.23 633.469 1409.81C603.645 1393.03 579.412 1366.94 558.286 1337.11C537.161 1307.29 516.656 1262.55 507.958 1245.77C499.259 1229 498.016 1197.31 493.667 1173.7C489.317 1150.09 488.075 1142.63 480.619 1114.67C473.162 1086.71 481.24 1089.82 480.619 1055.64C479.997 1021.47 485.589 1027.68 488.075 991.023C490.56 954.364 498.016 958.713 504.851 919.569C511.686 880.424 503.608 892.851 498.016 892.23C492.424 891.608 476.89 923.918 466.328 948.772C455.765 973.626 457.007 988.538 459.493 1027.68Z" fill="#1D8F0B"/>
<path d="M845.348 1494.31C803.096 1502.27 766.851 1493.48 754.01 1488.1C754.839 1492.24 755.75 1499.66 762.709 1506.12C771.408 1514.2 783.835 1519.79 809.31 1526.62C834.785 1533.46 862.124 1530.97 885.735 1530.97H949.112C957.19 1530.97 1011.25 1526.62 1028.64 1526.62C1046.04 1526.62 1032.37 1537.81 1018.08 1544.64C1003.79 1551.48 981.422 1552.72 961.539 1557.69C945.633 1561.67 922.187 1572.19 912.453 1576.95H952.84C980.179 1576.95 1004.41 1581.3 1011.25 1576.95C1016.71 1573.47 1117.91 1549.4 1167.83 1537.81C1190.4 1532.63 1239.53 1521.03 1255.43 1516.06C1275.32 1509.85 1305.14 1484.37 1319.43 1471.32C1333.72 1458.27 1375.98 1427.83 1393.99 1411.67C1412.01 1395.52 1503.35 1324.06 1503.35 1317.23C1503.35 1310.54 1493.24 1318.13 1485.82 1323.7L1485.33 1324.06C1477.88 1329.66 1444.32 1355.13 1425.68 1366.32C1407.04 1377.5 1366.66 1407.32 1352.36 1416.02C1338.07 1424.72 1290.85 1446.47 1280.91 1452.06C1270.97 1457.65 1228.72 1478.16 1206.97 1494.31C1185.22 1510.47 1162.23 1513.57 1145.46 1526.62C1128.68 1539.67 1088.29 1535.94 1088.29 1530.97C1088.29 1526 1076.49 1506.12 1064.68 1506.12C1052.88 1506.12 1027.4 1504.87 1004.41 1506.12C981.422 1507.36 987.014 1502.39 1000.06 1494.31C1013.11 1486.23 1067.79 1472.56 1083.94 1471.32C1100.1 1470.08 1162.23 1452.06 1167.83 1446.47C1173.42 1440.88 1208.21 1422.24 1221.88 1411.67C1235.55 1401.11 1272.83 1383.71 1286.5 1366.32C1300.17 1348.92 1334.97 1324.06 1343.04 1312.88C1351.12 1301.7 1372.87 1271.87 1389.02 1252.61C1405.18 1233.35 1417.61 1201.66 1420.71 1185.5C1423.82 1169.35 1410.15 1184.88 1389.02 1204.77C1367.9 1224.65 1333.72 1245.15 1315.08 1284.3C1296.44 1323.44 1162.85 1425.96 1148.56 1439.01C1134.27 1452.06 1110.66 1452.06 1088.29 1452.06C1065.92 1452.06 1019.32 1450.82 994.47 1452.06C969.616 1453.3 952.219 1472.57 935.443 1478.16C918.666 1483.75 898.162 1484.37 845.348 1494.31Z" fill="#1D8F0B"/>
<path d="M1490.61 1233.35C1486.57 1265.04 1465.45 1277.46 1461.41 1282.43C1460.27 1287.09 1459.42 1296.1 1465.14 1294.86C1472.28 1293.31 1482.23 1280.88 1496.83 1257.58C1511.43 1234.28 1513.91 1242.67 1538.46 1210.98C1563 1179.29 1553.68 1191.1 1567.66 1160.65C1581.64 1130.2 1580.4 1121.51 1578.84 1104.11C1577.29 1086.71 1574.81 1112.5 1556.48 1127.1C1538.15 1141.7 1523.54 1148.84 1508.63 1169.35C1493.72 1189.85 1494.65 1201.66 1490.61 1233.35Z" fill="#1D8F0B"/>
<path d="M1672.97 977.517C1667.46 1002 1661.45 1028.74 1659.62 1035.14C1658.79 1037.52 1658.19 1042.16 1662.41 1041.66C1667.7 1041.04 1673.29 1032.34 1681.99 1011.22C1690.69 990.091 1694.72 977.664 1705.29 945.044C1715.85 912.423 1711.19 912.734 1713.05 884.774C1714.92 856.813 1709.33 864.891 1699.38 867.376C1689.44 869.861 1693.79 891.608 1688.82 912.734C1683.85 933.86 1678.88 951.257 1673.29 976.111L1672.97 977.517Z" fill="#1D8F0B"/>
<path d="M1496.83 1018.05C1504.59 1007.49 1527.02 987.917 1533.49 966.791C1541.56 940.384 1561.76 929.821 1556.79 904.346C1551.82 878.871 1545.91 861.163 1538.46 866.755C1531 872.347 1532.55 880.424 1527.58 883.842C1522.61 887.259 1515.16 880.114 1517.95 860.852C1520.75 841.59 1527.89 813.63 1519.51 812.077C1511.12 810.523 1511.43 813.63 1507.39 822.95C1503.35 832.27 1496.52 842.212 1493.72 829.163C1490.92 816.115 1496.52 810.212 1491.55 797.475C1486.57 784.737 1471.97 761.126 1482.85 768.272C1493.72 775.417 1499.31 788.155 1504.28 783.805C1509.25 779.456 1512.05 739.069 1504.28 722.292C1496.52 705.516 1485.02 677.245 1471.66 665.75C1458.3 654.255 1344.29 563.228 1355.78 561.364C1367.28 559.5 1380.64 567.578 1385.61 568.82C1390.58 570.063 1386.23 561.054 1383.43 553.287C1380.64 545.52 1344.91 473.444 1309.8 444.552C1274.7 415.659 1268.79 412.242 1276.56 411.931C1284.33 411.62 1287.12 405.407 1312.29 416.591C1337.45 427.775 1361.37 439.581 1373.49 449.212C1385.61 458.843 1399.28 479.658 1411.08 498.298C1422.89 516.938 1434.07 541.171 1437.49 553.287C1440.91 565.403 1443.39 570.684 1434.69 567.267C1425.99 563.85 1411.08 543.345 1411.08 553.287C1411.08 563.228 1410.77 561.675 1417.29 572.238C1423.82 582.801 1418.54 591.499 1434.69 597.402C1450.85 603.305 1452.09 602.684 1462.65 607.965C1473.22 613.246 1508.94 646.178 1539.39 712.04C1569.83 777.903 1578.53 768.582 1580.09 757.398C1581.64 746.214 1588.79 722.292 1594.69 731.612C1600.06 740.095 1617.23 765.049 1619.37 768.059C1619.31 767.958 1619.37 767.998 1619.54 768.272C1619.65 768.439 1619.58 768.356 1619.37 768.059C1619.72 768.648 1623.86 774.042 1629.79 766.408C1638.49 755.224 1642.84 746.525 1644.71 762.058C1646.57 777.592 1648.75 777.592 1650.92 789.397C1651.85 799.132 1653.16 822.391 1650.92 837.552C1648.12 856.503 1621.41 912.734 1619.54 919.569C1617.68 926.404 1590.03 968.966 1590.03 981.393C1590.03 993.82 1592.2 1001.9 1585.37 999.101C1578.53 996.305 1581.33 988.538 1573.87 977.665C1566.42 966.791 1563.93 959.024 1556.79 970.209C1549.64 981.393 1537.21 988.849 1527.58 1001.28C1519.88 1011.22 1500.35 1025.09 1491.55 1030.79C1491.55 1030.79 1489.06 1028.61 1496.83 1018.05Z" fill="#1D8F0B"/>
<path d="M746.554 676.002C733.133 689.921 755.874 679.316 768.922 672.274C775.136 672.274 791.415 671.405 806.824 667.925C826.086 663.576 857.153 656.119 854.046 644.314C850.94 632.508 852.182 628.78 857.153 618.839C862.124 608.897 896.298 618.839 941.656 622.567C987.014 626.295 964.646 631.887 904.375 644.314C844.105 656.741 883.25 672.274 896.298 667.925C909.346 663.576 1016.84 676.002 1047.28 676.002C1077.73 676.002 1156.02 726.953 1179.01 736.894C1202 746.836 1178.39 720.739 1168.45 697.128C1158.5 673.517 1180.25 700.856 1193.92 717.011C1207.59 733.166 1211.32 718.875 1203.86 697.128C1196.41 675.381 1191.44 672.274 1188.95 659.226C1186.47 646.178 1203.86 668.546 1226.23 672.274C1248.6 676.002 1223.12 653.634 1203.86 628.78C1184.6 603.927 1167.83 607.655 1146.7 597.713C1125.57 587.772 1114.39 591.5 1099.48 593.364C1084.57 595.228 1111.9 607.655 1126.2 618.839C1140.49 630.023 1130.54 637.479 1118.12 631.887C1105.69 626.295 1067.17 607.655 1038.59 597.713C1010 587.772 972.723 581.558 934.821 574.102C896.919 566.646 890.706 571.617 875.172 574.102C859.638 576.587 866.473 595.228 857.153 607.655C847.833 620.081 827.95 625.674 795.64 637.479C763.33 649.285 763.33 658.605 746.554 676.002Z" fill="#1D8F0B"/>
<path d="M591.218 1694.39C587.49 1711.78 577.548 1728.56 560.772 1736.64C543.996 1744.71 525.852 1724.83 507.958 1709.92C485.589 1691.28 486.211 1698.73 455.143 1663.94C424.076 1629.14 422.212 1631.63 407.921 1606.15C393.63 1580.68 348.894 1467.59 335.224 1427.83C321.554 1388.06 320.933 1391.17 307.264 1371.91C293.594 1352.65 288.002 1371.29 262.527 1357C237.052 1342.7 244.508 1336.49 214.683 1316.61C184.859 1296.72 192.936 1309.77 175.539 1325.93C161.621 1338.85 163.94 1352.02 166.84 1357C169.739 1369.01 175.539 1398.13 175.539 1418.51C175.539 1443.98 191.072 1471.32 199.15 1496.8C207.227 1522.27 206.606 1530.97 214.683 1530.97C222.761 1530.97 215.926 1523.52 228.353 1507.36C240.78 1491.21 336.467 1652.75 368.777 1685.69C401.087 1718.62 401.708 1728.56 435.882 1762.11C470.056 1795.66 496.152 1782.62 521.627 1786.97C547.102 1791.31 577.548 1794.42 621.042 1798.77C664.536 1803.12 652.731 1806.23 672.614 1798.77C692.497 1791.31 667.643 1784.48 644.032 1747.2C620.421 1709.92 619.178 1707.43 604.266 1688.79C589.354 1670.15 594.946 1676.99 591.218 1694.39Z" fill="#C4F013"/>
<path d="M205.363 1223.41C196.665 1250.74 194.801 1270.63 188.587 1276.22V1243.29C188.587 1227.13 183.616 1219.68 174.917 1201.66C166.219 1183.64 145.714 1156.3 136.394 1127.1C127.074 1097.89 140.122 1097.27 141.986 1070.55C143.85 1043.84 141.986 1045.08 150.685 1025.82C159.384 1006.56 188.587 997.236 196.043 985.431C203.499 973.625 205.363 971.761 209.713 1017.12C214.062 1062.48 196.665 1055.02 188.587 1101.62C180.51 1148.22 193.558 1130.2 205.363 1166.86C217.169 1203.52 214.062 1196.07 205.363 1223.41Z" fill="#C4F013"/>
<path d="M401.708 685.322C407.176 671.404 432.154 657.155 443.959 651.77C446.237 644.935 452.161 628.159 457.629 615.732C464.464 600.198 466.328 595.228 472.541 572.238C478.689 549.49 501.262 537.692 528.222 523.602L529.083 523.152C556.422 508.861 572.577 521.288 599.917 503.89C627.256 486.492 617.314 488.356 595.567 479.036C573.82 469.716 579.412 468.473 595.567 457.91C611.722 447.348 635.333 434.921 665.158 425.601C694.982 416.28 684.419 408.824 690.633 388.941C696.846 369.058 713.001 374.029 721.079 367.816C729.156 361.602 762.709 367.816 775.757 362.224C788.805 356.631 777 355.389 756.495 347.933C740.092 341.968 825.05 326.393 869.58 319.351C843.276 314.38 785.077 305.433 762.709 309.409C734.748 314.38 691.254 324.322 673.235 334.263C655.216 344.205 613.586 351.661 590.596 367.816C567.702 383.903 550.354 389.516 529.347 396.312L529.083 396.397C507.958 403.232 548.345 376.514 568.849 355.389C589.354 334.263 610.479 337.37 627.877 319.351C645.275 301.332 632.848 306.303 621.664 304.439C610.479 302.574 583.14 316.244 572.577 319.351C562.015 322.457 539.646 341.098 529.083 347.933C518.52 354.767 501.744 350.418 480.618 351.661C459.493 352.903 436.503 370.922 416.62 380.242C396.737 389.563 383.689 397.019 362.563 396.397C341.438 395.776 335.224 400.125 323.418 408.824C311.613 417.523 310.992 431.814 323.418 444.862C335.845 457.91 358.835 446.105 374.99 444.862C391.145 443.62 419.105 421.251 447.066 408.824C475.026 396.397 483.725 367.194 501.744 367.816C516.159 368.313 488.282 410.688 472.541 431.814C435.882 452.94 349.515 507.369 297.322 556.083C232.081 616.975 204.12 710.797 210.955 698.992C217.79 687.186 307.885 629.401 338.331 615.732C368.777 602.062 383.689 615.732 348.272 637.479C319.939 654.877 273.918 737.93 254.449 777.281C260.041 771.275 273.462 756.528 282.41 745.593C293.594 731.923 302.914 711.419 310.992 698.992C319.069 686.565 343.923 674.76 352.622 661.711C361.32 648.663 374.99 641.207 383.689 641.828C392.388 642.45 374.99 669.167 362.563 685.322C350.136 701.477 343.923 717.011 338.331 736.273C332.739 755.534 338.331 774.175 338.331 808.97C338.331 843.765 335.845 863.027 338.331 882.288C340.816 901.55 342.68 904.657 348.272 913.356C353.864 922.054 356.35 909.628 359.456 889.745C362.563 869.862 362.563 865.512 362.563 846.872C362.563 828.232 371.262 822.018 371.262 808.97C371.262 795.922 374.99 782.252 371.262 774.175C367.534 766.097 373.747 748.699 374.99 730.059C376.233 711.419 394.873 702.72 401.708 685.322Z" fill="#C4F013"/>
<path d="M230.838 598.955C215.615 622.566 173.364 653.323 167.461 665.439C167.461 661.918 168.331 651.459 171.811 637.789C176.16 620.702 196.043 584.975 199.46 571.305C202.878 557.636 230.838 532.161 246.993 519.423C263.148 506.686 268.119 506.064 282.099 497.987C296.079 489.909 315.652 491.463 316.273 506.064C316.894 520.666 288.313 544.277 270.294 556.082C252.275 567.888 246.061 575.344 230.838 598.955Z" fill="#C4F013"/>
<path d="M1510.19 1691.28C1479.74 1727.94 1474.77 1714.89 1468.56 1721.1C1462.34 1727.32 1466.32 1735.39 1479.74 1737.88C1496.52 1740.99 1499 1731.04 1524.48 1714.89C1549.95 1698.73 1559.27 1716.13 1586.61 1721.1C1613.95 1726.07 1596.55 1707.43 1586.61 1688.17C1576.67 1668.91 1594.07 1664.56 1596.55 1632.87C1599.04 1601.18 1584.75 1627.28 1559.27 1640.95C1533.8 1654.62 1540.63 1654.62 1510.19 1691.28Z" fill="#C4F013"/>
<path d="M1578.84 1588.14C1562.07 1617.03 1540.94 1618.58 1535.04 1623.86C1537.63 1626.35 1544.92 1630.51 1553.37 1627.28C1563.93 1623.24 1569.52 1619.51 1585.99 1614.54C1602.45 1609.57 1603.39 1611.12 1617.06 1603.36C1630.73 1595.59 1636.63 1588.14 1645.33 1580.37C1654.03 1572.6 1668.94 1548.06 1677.95 1537.5C1686.96 1526.93 1711.81 1474.74 1715.23 1457.96C1718.65 1441.19 1717.09 1422.24 1720.82 1386.51C1723.8 1357.93 1716.06 1353.47 1711.81 1354.82C1709.64 1362.17 1704.6 1378.8 1701.87 1386.51C1698.45 1396.14 1680.12 1425.65 1674.53 1438.7C1668.94 1451.75 1649.06 1478.47 1640.98 1499.9C1632.9 1521.34 1595.62 1559.24 1578.84 1588.14Z" fill="#C4F013"/>
<path d="M1727.03 1301.07C1715.85 1328.41 1719.58 1334 1720.2 1344.57C1722.48 1346.43 1728.15 1345.06 1732.63 1324.68C1738.22 1299.21 1746.3 1297.35 1759.97 1276.22C1773.64 1255.09 1774.26 1250.74 1786.68 1232.1C1799.11 1213.46 1823.34 1153.82 1815.27 1125.85C1807.19 1097.89 1803.46 1083.6 1794.76 1048.81C1786.06 1014.01 1779.23 1011.53 1769.29 976.111C1759.34 940.694 1763.69 944.422 1759.97 926.403C1756.24 908.384 1753.13 926.403 1746.3 944.422C1739.46 962.441 1743.81 989.159 1738.84 1019.6C1733.87 1050.05 1760.59 1110.32 1763.69 1125.85C1766.8 1141.39 1770.53 1156.92 1769.29 1189.23C1768.04 1221.54 1764.94 1235.83 1753.13 1253.85C1741.33 1271.87 1738.22 1273.73 1727.03 1301.07Z" fill="#C4F013"/>
<path d="M1631.97 554.839C1651.85 563.787 1691.2 635.614 1708.39 670.409V719.496C1708.39 730.058 1724.55 706.447 1724.55 697.749C1724.55 689.05 1720.82 660.468 1713.99 636.857C1707.15 613.246 1682.3 584.664 1671.11 565.402C1662.17 549.993 1626.38 520.873 1609.6 508.239C1586.82 497.883 1527.58 463.129 1472.9 406.96C1404.56 336.748 1318.81 308.166 1315.08 304.438C1311.36 300.71 1222.5 270.885 1202 247.896C1181.49 224.906 1139.86 215.586 1129.92 211.236C1119.98 206.887 1095.13 193.839 1070.27 200.052C1045.42 206.266 997.577 178.926 987.635 173.956C977.694 168.985 938.549 151.587 929.229 151.587C919.909 151.587 892.57 138.539 875.172 151.587C857.774 164.636 849.075 162.771 839.134 173.956C829.192 185.14 753.388 193.839 726.049 203.78C698.71 213.722 656.459 211.236 642.168 224.906C630.735 235.842 622.906 238.575 620.421 238.575C628.705 238.575 649.748 235.842 667.643 224.906C690.011 211.236 778.242 209.994 793.776 211.236C809.309 212.479 855.289 206.887 903.132 215.586C950.976 224.285 994.47 233.605 991.985 230.498C989.499 227.391 960.917 214.343 943.52 206.887C926.122 199.431 917.423 183.897 906.86 173.956C896.298 164.014 916.802 164.014 926.122 162.771C935.442 161.529 949.733 177.684 960.917 193.839C972.102 209.994 1080.22 235.469 1100.72 247.896C1121.22 260.322 1188.95 282.691 1215.67 308.166C1242.39 333.641 1355.47 370.3 1370.38 377.135C1385.3 383.97 1441.84 430.571 1503.35 481.521C1564.86 532.471 1531.93 540.549 1541.25 569.752C1550.57 598.955 1530.07 612.003 1531.93 630.022C1533.8 648.041 1546.22 632.507 1575.43 636.857C1604.63 641.206 1595.31 647.42 1617.68 670.409C1640.05 693.399 1631.97 707.069 1631.97 728.194C1631.97 749.32 1641.91 756.776 1657.44 763.611C1672.98 770.446 1680.43 775.417 1688.51 756.776C1696.59 738.136 1688.51 728.194 1688.51 697.749C1688.51 667.303 1686.65 670.409 1671.11 644.313C1655.58 618.217 1623.89 606.411 1595.31 584.664C1566.73 562.917 1566.73 554.839 1554.92 540.549C1543.12 526.258 1535.66 505.132 1549.95 508.239C1564.24 511.345 1607.12 543.655 1631.97 554.839Z" fill="#C4F013"/>
<path d="M1210.7 196.324C1185.22 185.762 1127.44 192.596 1121.85 192.596C1122.88 193.839 1125.57 196.324 1128.06 196.324C1131.17 196.324 1167.2 211.858 1194.54 223.042C1221.88 234.226 1216.91 244.168 1234.31 259.701C1251.71 275.235 1297.06 282.691 1318.81 291.39C1340.56 300.089 1370.38 315.001 1393.99 326.185C1417.61 337.369 1430.65 355.388 1454.26 366.573C1477.88 377.757 1492.79 390.805 1510.19 406.339C1527.58 421.872 1541.25 439.891 1546.22 435.542C1551.19 431.192 1528.2 395.776 1510.19 371.543C1492.17 347.311 1466.69 337.991 1450.54 326.185C1434.38 314.38 1399.59 304.438 1376.6 287.041C1353.61 269.643 1338.69 257.216 1318.81 239.197C1298.93 221.178 1236.17 206.887 1210.7 196.324Z" fill="#C4F013"/>
<path d="M114.026 854.328C108.434 884.773 108.434 938.209 101.599 969.898C101.599 975.283 102.096 993.509 104.084 1023.33C106.57 1060.61 101.599 1122.75 101.599 1130.2C101.599 1137.66 107.191 1155.06 115.268 1178.05C123.346 1201.04 137.637 1217.19 146.957 1233.35C156.277 1249.5 156.898 1274.98 160.627 1299.83C164.355 1324.68 170.568 1324.06 173.675 1320.34C176.781 1316.61 186.102 1291.13 190.451 1265.66C194.8 1240.18 181.752 1217.19 173.675 1194.2C165.597 1171.21 150.064 1155.68 137.637 1122.75C125.21 1089.82 138.88 1074.28 142.608 1053.78C146.336 1033.27 161.248 1012.77 170.568 1000.96C179.888 989.159 201.635 977.354 205.985 986.052C210.334 994.751 190.451 1030.17 190.451 1050.67C190.451 1071.18 180.51 1098.52 190.451 1122.75C200.393 1146.98 217.79 1215.95 211.577 1227.76L211.286 1228.31C205.266 1239.74 202.247 1245.47 201.635 1265.66C201.014 1286.16 207.849 1293.62 227.732 1320.34C243.638 1341.71 265.427 1363.62 274.333 1371.91C282.41 1366.11 301.423 1358.61 312.856 1375.01C327.147 1395.52 362.563 1481.26 366.913 1493.69C371.262 1506.12 410.407 1610.5 438.367 1651.51C466.328 1692.52 517.278 1716.13 535.297 1729.8C553.316 1743.47 560.772 1729.8 573.82 1723.59C586.869 1717.37 584.383 1696.25 591.218 1682.58C598.053 1668.91 622.906 1725.45 639.683 1747.2C656.459 1768.95 670.129 1777.64 673.235 1798.15C676.342 1818.65 643.411 1793.18 618.557 1798.15C593.703 1803.12 623.528 1808.09 643.411 1813.06C663.294 1818.03 745.933 1872.71 798.125 1893.84C850.318 1914.96 999.441 1916.2 1024.92 1913.1C1050.39 1909.99 1136.76 1883.27 1241.14 1881.41C1345.53 1879.55 1414.5 1860.28 1433.14 1850.34C1451.78 1840.4 1485.33 1823 1496.52 1809.33C1507.7 1795.66 1555.54 1751.55 1574.18 1729.18C1592.82 1706.81 1587.85 1715.51 1581.02 1711.16C1574.18 1706.81 1537.52 1704.95 1523.23 1711.16C1508.94 1717.37 1477.25 1731.04 1452.4 1740.99C1427.55 1750.93 1453.64 1723.59 1472.28 1711.16C1490.92 1698.73 1527.58 1673.88 1537.52 1658.35C1547.47 1642.81 1581.02 1632.25 1574.18 1627.28C1567.35 1622.31 1530.69 1637.22 1533.18 1622.31C1535.66 1607.4 1592.82 1556.45 1604.01 1547.13C1615.19 1537.81 1668.01 1457.03 1670.49 1445.85C1672.98 1434.66 1694.1 1369.42 1708.39 1345.81C1722.69 1322.2 1729.52 1297.35 1736.35 1279.95C1743.19 1262.55 1782.96 1186.13 1777.98 1174.32C1773.01 1162.51 1770.53 1157.54 1765.56 1138.28C1760.59 1119.02 1758.1 1101 1753.75 1071.18C1749.4 1041.35 1746.92 1028.93 1746.92 1005.94V949.393C1746.92 923.918 1759.34 927.025 1763.07 941.937C1766.8 956.849 1792.9 1057.51 1800.35 1079.25C1807.81 1101 1817.75 1119.64 1818.99 1142.63C1820.24 1165.62 1832.04 1142.01 1838.88 1107.84C1845.71 1073.66 1845.09 1071.18 1844.47 1049.43C1843.85 1027.68 1837.63 922.675 1832.04 891.608C1826.45 860.541 1827.07 836.309 1823.34 798.407C1819.61 760.505 1810.92 731.923 1800.35 675.38C1789.79 618.838 1760.59 569.752 1740.7 529.365C1720.82 488.977 1653.72 386.456 1635.7 365.951C1617.68 345.447 1592.82 296.982 1548.09 296.982C1503.35 296.982 1415.74 254.731 1390.27 249.76C1364.79 244.789 1274.7 205.023 1260.41 200.674C1246.11 196.324 1133.03 145.995 1102.58 129.84C1072.14 113.686 980.801 101.88 925.501 100.637C870.201 99.3946 776.378 137.297 758.359 137.918C740.34 138.539 657.702 173.335 616.693 198.188C575.684 223.042 457.008 295.118 436.503 307.545C415.999 319.972 385.553 346.69 355.729 375.271C325.904 403.853 339.574 395.776 355.729 395.776C371.884 395.776 387.417 395.776 415.999 383.349C444.581 370.922 466.949 359.116 479.997 351.039C493.046 342.961 513.55 346.69 530.326 346.69C547.103 346.69 564.5 325.564 580.034 313.758C595.567 301.953 606.752 293.875 632.227 273.992C657.702 254.109 658.944 283.934 647.76 303.195C636.576 322.457 577.548 338.612 550.209 363.466C522.87 388.32 517.278 401.989 530.326 395.776C543.374 389.562 580.034 359.116 591.218 351.039C602.402 342.961 616.693 335.505 647.76 338.612C678.827 341.719 745.933 310.03 780.728 303.195C815.523 296.361 851.561 313.758 871.444 325.564C891.327 337.369 832.299 329.913 797.504 329.913C762.709 329.913 756.495 337.369 758.359 351.039C760.224 364.709 800.611 359.116 832.299 383.349C863.988 407.581 896.919 406.339 946.005 432.435C995.091 458.531 1092.64 447.347 1081.46 432.435C1070.27 417.523 1046.66 419.387 1019.32 406.339C991.985 393.29 977.694 387.698 964.024 359.116C950.355 330.535 955.947 329.913 969.616 313.758C983.286 297.603 996.956 310.652 1025.54 329.913C1054.12 349.175 1093.89 395.776 1112.53 413.795C1131.17 431.814 1141.73 431.192 1164.72 442.998C1187.71 454.803 1223.75 453.561 1220.02 447.347C1216.29 441.134 1190.81 419.387 1164.72 395.776C1138.62 372.165 1130.54 367.194 1121.22 346.69C1111.9 326.185 1151.67 341.719 1177.15 346.69C1202.62 351.66 1225.61 351.039 1263.51 359.116C1301.41 367.194 1341.18 402.61 1367.28 419.387C1393.37 436.163 1398.97 456.046 1415.74 479.657C1432.52 503.268 1448.67 534.335 1464.21 559.81C1479.74 585.286 1477.25 605.169 1484.71 633.129C1492.17 661.09 1504.59 675.38 1523.23 699.613C1541.87 723.845 1551.82 720.117 1563.62 712.04C1575.43 703.962 1578.53 690.914 1579.15 666.06C1579.78 641.207 1574.81 638.1 1563.62 633.129C1552.44 628.158 1549.95 639.964 1532.55 633.129C1515.16 626.294 1534.42 593.984 1538.15 566.024C1541.87 538.063 1533.18 528.743 1523.23 502.026C1513.29 475.308 1439.97 435.542 1424.44 419.387C1408.91 403.232 1395.86 398.261 1379.7 379.621C1363.55 360.98 1341.8 362.223 1320.05 351.039C1298.31 339.855 1279.05 334.263 1260.41 325.564C1245.49 318.605 1148.98 272.128 1102.58 249.76C1083.53 243.132 1042.81 229.877 1032.37 229.877C1019.32 229.877 978.315 197.567 966.51 190.111C954.704 182.655 930.472 167.742 911.831 162.772C893.191 157.801 927.986 188.247 946.627 205.023C961.539 218.444 983.079 230.498 991.985 234.848C980.594 233.191 952.343 228.758 930.472 224.285C903.133 218.693 846.59 208.13 824.222 205.023C801.854 201.916 751.525 211.237 736.612 215.586C721.7 219.935 658.323 223.663 647.76 229.877C637.197 236.09 611.722 234.848 616.693 229.877C621.664 224.906 693.118 211.237 713.001 208.13C732.884 205.023 822.358 176.441 837.891 173.335C853.425 170.228 870.823 159.665 883.25 145.995C895.676 132.326 907.482 139.782 933.578 145.995C959.675 152.209 1016.22 187.625 1032.37 190.111C1048.53 192.596 1119.36 207.508 1133.03 211.237C1146.7 214.965 1159.75 220.557 1181.49 234.848C1203.24 249.139 1230.58 265.293 1242.39 273.992C1254.19 282.691 1271.59 292.633 1285.26 296.982C1298.93 301.331 1367.28 324.943 1398.97 346.69C1430.65 368.437 1513.91 445.483 1538.15 461.638C1562.38 477.793 1629.48 520.044 1672.98 566.024C1716.47 612.003 1715.23 688.429 1722.69 746.214C1730.14 803.999 1708.39 870.482 1701.56 856.192C1694.72 841.901 1678.57 811.455 1672.98 826.988C1667.39 842.522 1583.5 990.402 1573.56 999.722C1563.62 1009.04 1446.81 1129.58 1428.79 1148.84C1410.77 1168.11 1390.27 1240.8 1384.67 1261.93C1379.08 1283.05 1397.72 1262.55 1421.95 1261.93C1446.19 1261.31 1453.02 1251.37 1466.69 1240.8C1480.36 1230.24 1483.47 1225.89 1503.97 1210.98C1524.48 1196.07 1535.66 1180.53 1552.44 1165.62C1569.21 1150.71 1570.46 1130.83 1573.56 1119.64C1576.67 1108.46 1585.99 1087.33 1594.07 1071.18C1602.14 1055.02 1607.12 1034.52 1610.84 1025.82C1614.57 1017.12 1650.61 976.732 1654.96 963.063C1659.31 949.393 1668.63 936.966 1678.57 927.025C1688.51 917.083 1707.15 936.966 1715.23 953.121C1723.31 969.276 1712.74 982.324 1729.52 1005.94C1746.3 1029.55 1734.49 1032.65 1739.46 1045.7C1744.43 1058.75 1746.92 1125.23 1746.92 1136.42C1746.92 1147.6 1748.78 1179.29 1746.92 1197.31C1745.05 1215.33 1639.43 1365.69 1639.43 1362.59C1639.43 1359.48 1637.56 1338.35 1639.43 1313.5C1641.29 1288.65 1622.03 1284.92 1607.12 1279.95C1592.2 1274.98 1566.73 1299.21 1552.44 1307.29C1538.15 1315.36 1506.46 1348.3 1493.41 1365.69C1480.36 1383.09 1456.75 1406.08 1443.7 1427.83C1430.65 1449.58 1456.13 1429.69 1468.56 1427.83C1480.98 1425.96 1500.87 1430.93 1509.56 1437.77C1518.26 1444.6 1447.43 1550.23 1433.14 1563.28C1418.85 1576.33 1288.99 1594.97 1295.82 1575.09C1302.66 1555.2 1307.63 1550.23 1324.4 1535.32C1341.18 1520.41 1346.77 1508.6 1345.53 1486.23C1344.29 1463.87 1329.37 1497.42 1307.63 1508.6C1285.88 1519.79 1244.25 1542.78 1230.58 1550.23C1216.91 1557.69 1162.23 1570.12 1133.03 1575.09C1103.83 1580.06 1024.92 1598.7 999.441 1598.7C973.966 1598.7 929.229 1594.35 926.744 1598.7C924.258 1603.05 975.208 1616.72 1004.41 1624.17C1033.61 1631.63 1052.26 1648.41 1074.62 1655.86C1096.99 1663.32 1133.03 1678.23 1157.26 1686.31C1181.49 1694.38 1187.09 1711.78 1183.36 1727.94C1179.63 1744.09 1092.02 1750.93 1064.68 1757.14C1037.34 1763.35 977.073 1745.33 955.947 1744.09C934.821 1742.85 868.959 1702.46 856.532 1691.9C844.105 1681.34 808.688 1671.39 793.155 1664.56C777.621 1657.73 756.495 1686.93 755.253 1664.56C754.01 1642.19 750.282 1629.76 739.098 1624.17C727.914 1618.58 670.129 1596.21 647.76 1580.68L646.556 1579.84C623.696 1563.97 576.643 1531.3 560.772 1514.82C544.617 1498.04 493.667 1477.54 475.648 1461.38C457.629 1445.23 444.581 1450.82 438.367 1470.7C432.154 1490.58 443.959 1538.43 449.552 1557.69C455.144 1576.95 463.221 1598.7 478.755 1624.17C494.288 1649.65 479.376 1645.92 463.221 1629.76C447.066 1613.61 382.446 1520.41 373.126 1489.96C363.806 1459.52 301.05 1334.63 298.565 1329.03C296.08 1323.44 286.759 1299.83 273.711 1284.92C260.663 1270.01 235.809 1235.21 231.46 1227.76C227.11 1220.3 196.043 1120.26 196.043 1109.7C196.043 1099.14 201.635 1089.82 205.985 1058.13C210.334 1026.44 217.79 1019.61 220.276 1021.47C222.761 1023.33 228.974 1073.66 235.809 1095.41C242.644 1117.16 250.1 1130.2 258.799 1161.27C267.498 1192.34 275.575 1187.37 290.487 1183.64C305.4 1179.91 320.312 1068.69 307.885 997.237C295.458 925.782 311.613 869.861 315.341 854.328C319.069 838.794 336.467 825.124 337.088 812.076C337.71 799.028 339.574 736.893 350.136 715.146C360.699 693.399 382.446 666.682 382.446 643.692C382.446 620.702 339.574 687.186 315.341 696.506C291.109 705.826 258.799 792.193 258.799 769.203C258.799 746.214 306.021 686.565 320.312 666.682C334.603 646.799 355.107 649.284 365.049 639.964C374.99 630.644 365.049 613.867 350.136 607.033C335.224 600.198 284.895 639.964 258.799 666.682C232.702 693.399 219.033 693.399 225.246 662.954C231.46 632.508 270.604 608.897 290.487 577.208C310.37 545.52 356.971 513.831 365.049 503.268C373.126 492.705 399.844 474.686 411.65 464.745C423.455 454.803 440.231 448.59 457.008 437.406C473.784 426.222 477.512 427.464 483.725 405.096C489.939 382.727 499.88 367.194 495.531 365.951C491.182 364.709 457.629 388.32 440.231 410.688C422.834 433.056 411.028 431.814 394.873 441.134C378.718 450.454 367.534 446.105 339.574 441.134C311.613 436.163 320.312 421.872 311.613 427.464C302.914 433.056 284.895 458.531 266.255 479.657C247.615 500.783 258.799 489.599 251.343 513.831C243.887 538.063 272.468 508.86 276.818 503.268C281.167 497.676 310.992 498.297 311.613 508.86C312.234 519.423 289.866 544.277 276.818 550.49C263.77 556.704 242.023 583.422 219.033 601.441C196.043 619.46 191.694 630.022 176.781 639.964C161.869 649.905 144.472 729.437 138.258 743.107C132.045 756.777 119.618 823.882 114.026 854.328Z" fill="#24BF0F"/>
<path d="M1586.92 1658.04C1581.33 1677.92 1593.76 1700.6 1595 1704.64C1596.24 1708.67 1603.39 1699.04 1605.87 1689.1C1608.98 1676.68 1657.44 1632.56 1672.67 1610.5C1687.89 1588.44 1727.66 1538.43 1744.74 1507.05C1761.83 1475.67 1760.59 1428.14 1769.91 1379.98C1779.23 1331.83 1792.28 1295.48 1795.38 1279.02C1798.49 1262.55 1814.33 1218.12 1809.36 1210.98C1804.39 1203.83 1784.82 1219.68 1774.57 1235.21C1764.32 1250.74 1737.29 1316.92 1725.79 1327.17C1714.3 1337.42 1718.03 1384.33 1720.82 1403.91C1723.6 1423.34 1703.39 1495.19 1697.64 1515.65L1697.52 1516.06C1691.93 1535.94 1655.58 1577.88 1634.14 1593.42C1612.71 1608.95 1619.54 1601.49 1605.87 1617.65C1592.2 1633.8 1592.51 1638.15 1586.92 1658.04Z" fill="#24BF0F"/>
<path d="M232.081 1413.54C230.838 1400.18 216.858 1400.18 208.159 1400.8C199.46 1401.42 192.688 1407.32 189.208 1413.54C184.859 1421.3 190.451 1423.48 193.558 1433.42C196.664 1443.36 210.334 1439.63 223.382 1441.19C236.43 1442.74 233.324 1426.9 232.081 1413.54Z" fill="#FFFAFC"/>
<path d="M371.883 1329.35C370.33 1317.85 359.146 1317.85 351.379 1318.16C343.612 1318.47 341.002 1319.09 338.02 1322.82C334.292 1327.48 334.603 1329.35 335.224 1340.22C335.845 1351.09 343.923 1353.58 351.379 1357.31C358.835 1361.03 365.048 1359.48 370.641 1352.65C376.233 1345.81 373.437 1340.84 371.883 1329.35Z" fill="#FFFAFC"/>
<path d="M287.691 1305.11C279.738 1295.17 268.222 1291.86 263.459 1291.44C262.941 1291.44 261.16 1291.07 258.177 1289.58C254.449 1287.72 245.44 1291.44 241.712 1296.1C237.984 1300.76 241.712 1309.77 242.333 1315.05C242.954 1320.34 243.886 1325.62 240.469 1327.48C237.052 1329.35 229.285 1325.62 222.45 1328.1C215.615 1330.59 218.101 1333.69 217.169 1346.43C216.237 1359.17 227.732 1358.86 249.789 1366.32C271.847 1373.77 277.128 1360.1 290.177 1350.47C303.225 1340.84 307.574 1325 306.021 1318.16C304.468 1311.33 297.633 1317.54 287.691 1305.11Z" fill="#FFFAFC"/>
<path d="M297.323 1261.62C296.701 1250.12 287.381 1245.15 276.508 1244.22C265.634 1243.29 260.042 1249.19 257.557 1255.41C254.45 1263.17 254.76 1267.83 260.663 1273.42C266.566 1279.02 276.508 1278.71 287.381 1279.02C298.255 1279.33 297.944 1273.11 297.323 1261.62Z" fill="#FFFAFC"/>
<path d="M233.324 1152.88C231.46 1141.39 213.13 1142.63 207.227 1143.87C201.324 1145.12 197.721 1150.65 195.732 1155.37C193.247 1161.27 192.936 1167.49 195.732 1175.56C198.528 1183.64 206.606 1184.26 210.334 1192.96C214.062 1201.66 222.45 1205.39 226.489 1200.42C230.528 1195.45 228.042 1194.51 228.042 1187.99C228.042 1181.47 233.324 1183.33 236.12 1177.12C238.916 1170.9 235.188 1164.38 233.324 1152.88Z" fill="#FFFAFC"/>
<path d="M166.529 1155.06C164.044 1140.77 155.966 1137.35 144.782 1137.35C133.598 1137.35 128.938 1143.07 125.21 1151.02C120.55 1160.96 125.831 1164.69 131.734 1173.08C137.637 1181.47 150.685 1184.57 157.209 1181.78C163.733 1178.98 169.015 1169.35 166.529 1155.06Z" fill="#FFFAFC"/>
<path d="M193.868 1055.95C191.694 1047.57 179.578 1050.05 174.607 1050.36C169.947 1050.36 159.943 1052.35 157.209 1060.3C153.792 1070.24 154.102 1071.8 157.209 1079.25C160.316 1086.71 174.607 1086.09 185.48 1084.22C196.354 1082.36 196.043 1064.34 193.868 1055.95Z" fill="#FFFAFC"/>
<path d="M166.219 988.849C160.937 971.451 127.695 984.81 123.035 988.849C118.375 992.887 103.587 1012.77 104.084 1025.2C104.706 1040.73 108.123 1042.91 118.997 1044.46C129.87 1046.01 153.481 1032.96 163.112 1023.02C172.743 1013.08 171.5 1006.25 166.219 988.849Z" fill="#FFFAFC"/>
<path d="M199.461 1271.87C185.791 1274.36 189.83 1274.05 182.684 1298.59C181.649 1300.66 178.148 1304.93 172.432 1305.42C165.287 1306.04 163.112 1307.29 160.937 1318.47C158.763 1329.66 158.763 1333.38 163.112 1342.08C167.461 1350.78 175.228 1352.02 184.238 1359.48C193.247 1366.94 201.635 1358.86 203.81 1344.88C205.985 1330.9 205.363 1328.1 209.091 1318.47C212.819 1308.84 220.586 1308.53 230.528 1297.04C240.469 1285.54 231.149 1290.51 226.178 1278.08C221.208 1265.66 213.13 1269.39 199.461 1271.87Z" fill="#FFFAFC"/>
<path d="M1746.92 717.011C1737.6 721.36 1740.39 746.214 1740.39 750.563C1740.39 752.013 1741.08 755.969 1743.81 760.194C1747.23 765.475 1750.96 759.573 1765.25 754.913C1779.54 750.252 1774.57 743.107 1779.85 730.68C1785.13 718.253 1778.92 722.603 1768.66 712.04C1758.41 701.477 1756.24 712.661 1746.92 717.011Z" fill="#FFFAFC"/>
<path d="M276.818 1572.6C270.294 1567.94 269.051 1569.49 260.352 1572.6C256.106 1575.09 247.739 1583.16 248.236 1595.59C248.857 1611.12 266.876 1609.26 274.643 1608.02C282.41 1606.78 279.303 1601.49 283.342 1600.25C287.381 1599.01 288.313 1605.53 292.351 1609.26C296.39 1612.99 299.186 1607.09 304.468 1605.53C309.749 1603.98 310.06 1608.95 322.487 1618.27C334.913 1627.59 346.098 1617.34 352.932 1611.44C359.767 1605.53 357.592 1590.62 355.107 1583.16C352.634 1575.75 340.628 1574.79 332.857 1574.16L332.739 1574.15C324.972 1573.53 321.865 1582.85 317.205 1583.16C312.545 1583.47 311.613 1579.44 306.953 1572.6C302.293 1565.77 296.701 1573.53 292.351 1576.95C288.002 1580.37 283.342 1577.26 276.818 1572.6Z" fill="#FFFAFC"/>
<path d="M343.302 1438.7C340.568 1426.52 328.7 1423.89 323.108 1424.1C317.102 1425.14 303.722 1431 298.254 1446.16C291.419 1465.11 311.302 1470.7 317.516 1475.36C323.729 1480.02 336.467 1476.6 344.855 1464.49C353.243 1452.37 346.719 1453.92 343.302 1438.7Z" fill="#FFFAFC"/>
<path d="M452.969 1415.4C449.986 1405.71 433.914 1405.77 426.251 1407.01L418.484 1411.05C416.309 1413.23 411.152 1419.25 407.921 1425.96C403.883 1434.35 406.989 1439.32 410.717 1448.33C414.445 1457.34 423.144 1459.52 433.086 1463.56C443.027 1467.59 453.901 1461.07 459.493 1447.4C465.085 1433.73 456.697 1427.52 452.969 1415.4Z" fill="#FFFAFC"/>
<path d="M446.445 1529.11C443.462 1524.14 436.296 1524.34 433.086 1525.07C429.565 1527.04 422.088 1532.21 420.348 1537.18C418.174 1543.4 421.28 1547.44 425.008 1552.1C428.736 1556.76 441.474 1553.34 448.309 1547.44C455.144 1541.53 450.173 1535.32 446.445 1529.11Z" fill="#FFFAFC"/>
<path d="M410.717 1695.94C404.504 1679.16 391.766 1686 380.582 1684.75C379.961 1684.75 378.283 1685.44 376.543 1688.17C374.369 1691.59 369.398 1692.83 362.874 1701.84C356.35 1710.85 361.01 1710.85 360.389 1723.59C359.767 1736.33 369.709 1732.6 380.582 1742.54C391.456 1752.48 408.853 1739.74 414.756 1729.8C420.659 1719.86 416.931 1712.71 410.717 1695.94Z" fill="#FFFAFC"/>
<path d="M505.472 1637.53C502.987 1626.35 495.531 1623.86 485.9 1623.86C476.269 1623.86 475.026 1627.65 470.056 1630.39C463.842 1633.8 465.396 1638.46 464.153 1645.3C462.91 1652.13 465.085 1655.24 469.124 1662.7C473.162 1670.15 479.686 1668.29 488.075 1671.4C496.463 1674.5 501.123 1668.29 503.608 1664.56C506.094 1660.83 507.958 1648.72 505.472 1637.53Z" fill="#FFFAFC"/>
<path d="M566.675 1634.74C562.636 1625.42 549.588 1619.2 540.578 1622.93C531.569 1626.66 534.241 1631.13 530.015 1637.84C524.734 1646.23 528.151 1647.78 528.462 1657.1C528.773 1666.42 538.093 1668.29 547.102 1673.26C556.112 1678.23 564.811 1668.29 570.714 1658.04C576.616 1647.78 570.714 1644.06 566.675 1634.74Z" fill="#FFFAFC"/>
<path d="M577.238 1756.21C568.228 1756.52 567.917 1768.95 564.811 1769.57C558.287 1772.05 560.461 1774.23 557.665 1777.96C554.869 1781.68 553.626 1784.17 563.568 1794.73C573.509 1805.29 585.315 1796.6 592.15 1791C598.985 1785.41 597.121 1771.74 594.324 1765.84C591.528 1759.94 586.247 1755.9 577.238 1756.21Z" fill="#FFFAFC"/>
<path d="M659.566 1688.17C656.459 1682.27 648.692 1680.4 641.236 1686C640.511 1686.72 638.502 1688.79 636.265 1691.28C635.644 1692.21 630.052 1695.94 626.634 1703.39C623.217 1710.85 626.634 1713.34 628.188 1721.1C629.741 1728.87 643.721 1728.87 654.906 1727.32C666.09 1725.76 664.226 1719.86 666.711 1709.61C669.196 1699.36 662.672 1694.07 659.566 1688.17Z" fill="#FFFAFC"/>
<path d="M747.486 1767.7C744.069 1764.29 739.408 1767.08 729.778 1769.26C725.739 1772.67 728.224 1773.3 727.603 1781.06C726.982 1788.83 731.642 1786.96 735.059 1789.76C738.476 1792.56 743.137 1791 750.593 1788.83C758.049 1786.65 757.427 1781.99 757.427 1777.33C757.427 1772.67 750.903 1771.12 747.486 1767.7Z" fill="#FFFAFC"/>
<path d="M752.146 1736.33C745 1748.13 750.903 1753.72 750.903 1760.25C754.01 1765.84 750.903 1763.35 754.01 1766.77C757.117 1770.19 760.845 1771.12 766.437 1774.54C772.019 1777.95 779.767 1773.93 788.138 1769.59L788.184 1769.57C796.572 1765.22 792.533 1760.25 793.776 1749.37C795.019 1738.5 791.291 1738.81 788.184 1731.98C785.077 1725.14 775.757 1724.21 767.369 1723.28C758.981 1722.35 759.291 1724.52 752.146 1736.33Z" fill="#FFFAFC"/>
<path d="M853.425 1832.01C839.134 1829.53 829.503 1848.17 828.882 1849.1C826.396 1855.93 822.979 1853.45 819.872 1861.22C818.319 1867.12 827.639 1873.64 834.474 1877.06C841.308 1880.48 856.842 1875.2 864.609 1871.47C872.376 1867.74 875.172 1854.69 874.55 1843.51C873.929 1832.32 867.716 1834.5 853.425 1832.01Z" fill="#FFFAFC"/>
<path d="M933.889 1906.26C929.85 1900.67 927.365 1903.16 918.355 1905.02C917.32 1905.02 914.627 1905.46 912.142 1907.19C909.035 1909.37 909.967 1912.17 910.589 1919C911.21 1925.84 917.113 1924.59 924.258 1928.63C931.404 1932.67 933.889 1926.15 938.238 1919.93C942.588 1913.72 937.928 1911.85 933.889 1906.26Z" fill="#FFFAFC"/>
<path d="M861.192 1636.91C859.017 1629.76 853.736 1630.08 845.037 1629.45C840.377 1629.14 837.27 1630.7 833.231 1635.36C829.192 1640.02 831.678 1639.71 832.299 1647.16C832.921 1654.62 837.891 1653.38 845.037 1658.04C852.182 1662.7 856.221 1658.04 860.26 1653.38C864.298 1648.72 863.366 1644.06 861.192 1636.91Z" fill="#FFFAFC"/>
<path d="M881.696 1714.89C866.163 1721.72 873.619 1731.67 873.619 1733.22C875.379 1736.22 879.459 1742.35 881.696 1742.85C884.492 1743.47 893.812 1746.89 897.23 1746.27C900.647 1745.65 904.065 1742.23 907.793 1737.88C911.521 1733.53 914.938 1739.12 917.734 1743.78C920.53 1748.44 923.948 1745.65 936.374 1745.02C948.801 1744.4 942.899 1738.5 945.695 1729.18C948.491 1719.86 939.792 1712.4 931.404 1705.57C923.016 1698.73 913.695 1703.39 906.861 1708.05C900.026 1712.71 897.23 1708.05 881.696 1714.89Z" fill="#FFFAFC"/>
<path d="M1082.39 1518.54C1083.94 1507.36 1072.76 1509.85 1056.6 1512.64C1049.46 1516.06 1046.04 1512.64 1040.14 1518.54C1034.24 1524.45 1037.96 1535.01 1038.59 1544.64C1039.21 1554.27 1056.6 1547.75 1067.17 1544.64C1077.73 1541.53 1080.84 1529.73 1082.39 1518.54Z" fill="#FFFAFC"/>
<path d="M1119.98 1634.42C1110.97 1634.42 1110.04 1639.08 1108.49 1644.99C1106.93 1650.89 1100.72 1656.48 1101.96 1661.76C1103.21 1667.05 1106 1668.91 1110.04 1671.39C1114.08 1673.88 1121.22 1673.57 1127.75 1671.39C1134.27 1669.22 1137.07 1660.83 1137.69 1652.75C1138.31 1644.68 1136.76 1644.37 1133.65 1639.08C1130.54 1633.8 1128.99 1634.42 1119.98 1634.42Z" fill="#FFFAFC"/>
<path d="M1303.28 1704.33C1292.4 1693.76 1285.57 1699.98 1278.73 1700.6C1277.08 1701.12 1272.58 1703.27 1267.86 1707.74C1261.96 1713.34 1263.51 1716.75 1261.65 1730.11C1259.78 1743.47 1265.07 1740.36 1271.28 1747.51C1277.49 1754.66 1290.23 1748.44 1305.45 1742.85C1320.68 1737.26 1316.02 1733.84 1316.95 1724.52C1317.88 1715.2 1314.15 1714.89 1303.28 1704.33Z" fill="#FFFAFC"/>
<path d="M1311.36 1766.46C1305.76 1775.16 1307.32 1778.58 1305.45 1782.31C1303.59 1786.03 1296.51 1782.06 1291.78 1784.79C1285.88 1788.21 1287.43 1792.56 1286.81 1804.05C1286.19 1815.55 1298 1815.86 1305.45 1819.9C1312.91 1823.94 1320.68 1816.79 1323.78 1814.3C1326.89 1811.82 1327.51 1801.88 1327.2 1800.01C1326.89 1798.15 1322.23 1792.56 1322.23 1789.45C1322.23 1786.34 1322.23 1785.72 1326.27 1782.31C1330.31 1778.89 1334.97 1777.96 1339.94 1771.74C1344.91 1765.53 1339.94 1763.35 1337.14 1756.52C1334.34 1749.68 1328.75 1752.17 1322.23 1752.48C1315.7 1752.79 1316.95 1757.76 1311.36 1766.46Z" fill="#FFFAFC"/>
<path d="M1325.34 1825.49C1318.19 1821.14 1314.77 1827.66 1311.36 1829.84C1307.94 1832.01 1307.32 1835.8 1307.32 1839.78C1307.32 1844.75 1310.42 1843.82 1315.39 1848.79C1320.36 1853.76 1325.34 1850.65 1333.1 1850.03C1340.87 1849.41 1338.38 1842.26 1338.38 1834.81C1338.38 1827.35 1332.48 1829.84 1325.34 1825.49Z" fill="#FFFAFC"/>
<path d="M1365.41 1772.98C1353.61 1785.3 1347.7 1783.86 1342.42 1792.56C1337.14 1801.26 1340.25 1799.7 1347.08 1804.05C1353.92 1808.4 1362.31 1810.89 1371.32 1809.95C1386.11 1808.42 1431.9 1805.29 1445.25 1805.92C1458.61 1806.54 1485.33 1803.43 1499.31 1802.19C1513.29 1800.95 1522.61 1795.66 1531.93 1788.83C1541.25 1781.99 1555.54 1773.92 1564.24 1763.66C1572.94 1753.41 1565.17 1748.75 1559.89 1742.85C1554.61 1736.95 1550.26 1741.92 1538.46 1745.96C1526.65 1749.99 1512.67 1760.25 1505.84 1763.66C1499 1767.08 1495.89 1762.73 1498.38 1757.14C1500.87 1751.55 1486.57 1753.41 1470.73 1758.38C1454.89 1763.35 1435.62 1755.9 1419.78 1755.9C1403.94 1755.9 1387.16 1750.31 1365.41 1772.98Z" fill="#FFFAFC"/>
<path d="M1441.53 1696.87C1434.07 1706.19 1441.84 1708.05 1446.5 1715.2C1451.16 1722.35 1453.77 1719.92 1454.26 1723.9C1454.89 1728.87 1451.78 1733.84 1457.99 1739.43C1464.21 1745.02 1465.76 1743.47 1476.01 1742.54C1486.26 1741.61 1489.99 1735.08 1489.99 1727.94C1489.99 1720.79 1481.91 1716.44 1478.81 1715.2C1475.7 1713.96 1471.66 1711.16 1471.04 1703.08C1470.42 1695.01 1462.65 1691.59 1457.99 1687.86C1453.33 1684.13 1448.98 1687.55 1441.53 1696.87Z" fill="#FFFAFC"/>
<path d="M1339.32 1549.61C1334.1 1556.82 1330.31 1557.07 1328.75 1562.04C1327.2 1567.01 1327.51 1566.2 1328.75 1570.43C1330.31 1575.71 1331.24 1575.09 1336.52 1580.06C1341.8 1585.03 1350.5 1582.23 1357.65 1580.68C1364.79 1579.13 1367.28 1575.4 1371 1568.87C1374.73 1562.35 1371.94 1559.86 1369.45 1552.1C1366.97 1544.33 1361.37 1544.33 1353.92 1541.84C1346.46 1539.36 1345.84 1540.6 1339.32 1549.61Z" fill="#FFFAFC"/>
<path d="M1389.02 1597.14C1382.31 1602.11 1378.46 1600.56 1375.66 1605.84C1372.87 1611.12 1371.19 1612.3 1370.69 1613.3C1370.07 1614.54 1370.38 1618.58 1371.63 1627.28C1372.87 1635.98 1376.29 1634.74 1381.57 1638.15C1386.85 1641.57 1398.34 1637.22 1407.66 1631.63C1416.98 1626.04 1415.12 1621.38 1416.98 1613.3C1418.85 1605.22 1415.12 1599.32 1408.91 1591.24C1402.69 1583.16 1397.41 1590.93 1389.02 1597.14Z" fill="#FFFAFC"/>
<path d="M1546.53 1592.17C1543.74 1578.5 1526.65 1585.03 1521.68 1585.96C1516.71 1586.89 1513.98 1591.99 1512.98 1597.45C1511.74 1604.29 1517.64 1602.74 1521.68 1609.26C1525.72 1615.78 1533.18 1615.78 1543.12 1613.3C1553.06 1610.81 1549.33 1605.84 1546.53 1592.17Z" fill="#FFFAFC"/>
<path d="M1612.09 1624.79C1608.85 1619.58 1601.83 1621.07 1596.24 1620.44C1590.65 1619.82 1589.34 1621.13 1586.61 1623.86L1586.61 1623.86C1583.19 1627.28 1582.57 1629.77 1580.4 1638.46C1578.22 1647.16 1578.84 1648.41 1580.4 1657.73C1581.95 1667.05 1583.81 1663.94 1587.85 1668.91C1591.89 1673.88 1597.48 1673.88 1602.77 1672.64C1608.05 1671.4 1612.09 1665.8 1617.68 1660.52C1623.27 1655.24 1620.16 1649.34 1619.85 1639.4C1619.54 1629.45 1616.12 1631.32 1612.09 1624.79Z" fill="#FFFAFC"/>
<path d="M1660.86 1519.79C1653.72 1520.1 1648.12 1530.35 1647.5 1535.32C1646.88 1540.29 1647.38 1545.76 1649.37 1551.48C1651.85 1558.62 1659.93 1558.62 1668.94 1560.17C1677.95 1561.73 1688.2 1558 1694.41 1553.34C1700.63 1548.68 1699.7 1544.95 1699.07 1536.87C1698.45 1528.8 1690.06 1527.24 1685.4 1522.58C1680.74 1517.92 1668.01 1519.48 1660.86 1519.79Z" fill="#FFFAFC"/>
<path d="M1570.77 1452.06C1569.52 1457.03 1561.14 1456.72 1558.96 1457.65C1556.79 1458.58 1555.85 1461.07 1555.85 1461.07C1555.23 1463.04 1553.74 1467.53 1552.75 1469.77C1551.5 1472.56 1552.44 1479.4 1552.75 1482.51C1553.06 1485.61 1554.92 1493.69 1556.79 1496.8C1558.65 1499.9 1561.76 1503.01 1565.49 1505.5C1569.21 1507.98 1578.84 1509.22 1584.75 1509.22H1611.46C1617.68 1509.22 1629.48 1508.91 1632.28 1507.36C1635.08 1505.81 1635.7 1498.04 1635.08 1493.69C1634.45 1489.34 1627.93 1488.1 1624.2 1488.1C1620.47 1488.1 1611.46 1487.79 1608.05 1486.86C1604.63 1485.92 1594.07 1483.13 1591.89 1479.4C1589.72 1475.67 1592.2 1472.25 1592.82 1466.97C1593.45 1461.69 1590.96 1459.21 1588.16 1457.65C1585.37 1456.1 1583.81 1453.3 1584.75 1450.82C1585.68 1448.33 1589.1 1448.02 1594.07 1446.47C1599.04 1444.91 1607.74 1446.16 1611.46 1443.05C1615.19 1439.94 1611.46 1434.97 1609.29 1430.93C1607.12 1426.9 1595 1420.37 1590.96 1417.89C1586.92 1415.4 1574.49 1414.78 1570.15 1415.71C1565.8 1416.64 1561.76 1421.3 1559.89 1425.03C1558.03 1428.76 1563.31 1438.7 1565.49 1440.88C1567.66 1443.05 1572.01 1447.09 1570.77 1452.06Z" fill="#FFFAFC"/>
<path d="M1768.66 1440.57C1764.63 1437.46 1764.32 1442.12 1759.97 1447.4C1755.82 1452.44 1754.3 1456.93 1754.96 1460.71C1755.62 1464.49 1752.82 1470.08 1753.44 1471.63C1754.06 1473.19 1757.17 1479.4 1759.34 1482.2C1761.52 1484.99 1766.18 1484.37 1768.66 1483.13C1771.15 1481.89 1773.32 1473.19 1774.88 1466.97C1776.43 1460.76 1775.81 1455.17 1774.88 1449.58C1773.95 1443.98 1772.7 1443.67 1768.66 1440.57Z" fill="#FFFAFC"/>
<path d="M1681.68 1388.68C1675.46 1388.99 1676.08 1395.52 1676.08 1397.69C1676.08 1399.87 1678.51 1399.49 1679.5 1400.49C1680.74 1401.73 1682.61 1401.73 1686.65 1404.53C1690.69 1407.32 1690.06 1410.43 1690.06 1414.47V1426.9C1690.06 1433.42 1692.24 1434.97 1696.59 1440.88C1700.94 1446.78 1709.95 1442.74 1717.71 1440.88C1725.48 1439.01 1724.55 1435.59 1727.97 1428.14C1731.38 1420.68 1727.03 1418.82 1725.17 1412.29C1723.31 1405.77 1719.58 1408.57 1712.12 1405.46C1704.67 1402.35 1705.6 1403.91 1705.91 1397.69C1706.22 1391.48 1703.73 1390.86 1699.07 1388.68C1694.41 1386.51 1687.89 1388.37 1681.68 1388.68Z" fill="#FFFAFC"/>
<path d="M1521.99 1331.21C1524.72 1340.65 1552.95 1331.83 1566.73 1326.24C1568.49 1324.48 1571.7 1320.09 1570.46 1316.61C1568.9 1312.26 1557.1 1318.78 1555.85 1312.26C1554.61 1305.73 1566.73 1299.83 1572.01 1291.75C1577.29 1283.68 1620.78 1250.12 1622.65 1243.6C1624.51 1237.08 1640.67 1229.62 1640.67 1226.2C1640.67 1222.78 1657.44 1210.67 1661.17 1204.45C1664.9 1198.24 1669.56 1190.79 1667.39 1187.37C1665.21 1183.95 1652.16 1197.31 1642.53 1200.73C1632.9 1204.14 1626.69 1206.63 1622.65 1204.45C1618.61 1202.28 1609.6 1192.03 1604.63 1192.34C1599.66 1192.65 1605.87 1205.39 1604.63 1214.4C1603.39 1223.41 1599.04 1229.31 1591.89 1238.94C1584.75 1248.57 1578.84 1253.54 1568.28 1265.04C1557.72 1276.53 1533.49 1287.09 1528.52 1294.86C1523.54 1302.63 1518.57 1319.4 1521.99 1331.21Z" fill="#FFFAFC"/>
<path d="M1654.03 1320.03C1659.31 1319.09 1663.04 1311.95 1660.86 1303.56C1659.83 1301.8 1657.44 1297.91 1656.2 1296.41C1654.65 1294.55 1653.09 1293 1651.54 1291.75C1649.99 1290.51 1645.95 1290.51 1640.05 1289.89C1635.32 1289.39 1633.52 1294.65 1633.21 1297.35C1633.21 1302.94 1631.97 1307.29 1633.21 1313.19C1634.45 1319.09 1648.75 1320.96 1654.03 1320.03Z" fill="#FFFAFC"/>
<path d="M1750.02 1296.1C1749.78 1286.91 1735.63 1284.82 1728.59 1284.92C1726 1285.44 1720.01 1286.97 1716.78 1288.96C1712.74 1291.44 1709.02 1293.93 1706.53 1300.76C1704.04 1307.6 1709.95 1313.19 1713.99 1320.03C1718.02 1326.86 1730.45 1325.93 1737.29 1322.51C1744.12 1319.09 1750.33 1307.6 1750.02 1296.1Z" fill="#FFFAFC"/>
<path d="M1808.43 1317.23C1808.18 1312.76 1802.84 1308.22 1797.56 1306.67C1792.28 1305.11 1788.24 1308.22 1788.24 1308.22C1785.54 1310.6 1779.79 1315.99 1778.3 1318.47C1776.43 1321.58 1773.01 1335.25 1774.26 1342.7C1775.5 1350.16 1787.3 1353.27 1791.65 1352.02C1796 1350.78 1804.08 1344.57 1806.88 1337.73C1809.67 1330.9 1808.74 1322.82 1808.43 1317.23Z" fill="#FFFAFC"/>
<path d="M1679.19 1251.68C1669.75 1258.39 1661.79 1254.47 1659 1251.68C1657.24 1250.43 1653.47 1248.69 1652.47 1251.68C1651.23 1255.4 1659 1261.62 1662.41 1261.62C1665.83 1261.62 1668.94 1266.59 1668.94 1271.87C1668.94 1277.15 1665.83 1276.22 1668.94 1281.5C1672.05 1286.78 1679.19 1284.3 1692.24 1276.22C1705.29 1268.14 1717.71 1268.76 1733.87 1261.62C1750.02 1254.47 1766.49 1249.19 1777.05 1241.74C1787.62 1234.28 1812.78 1236.14 1828.31 1229.62C1843.85 1223.1 1846.33 1216.88 1852.55 1204.45C1858.76 1192.03 1863.73 1173.39 1866.53 1162.51C1869.32 1151.64 1869.63 1129.27 1868.08 1119.95C1866.53 1110.63 1861.56 1123.06 1852.55 1129.27C1843.54 1135.49 1838.25 1139.21 1826.76 1146.67C1815.27 1154.13 1794.76 1155.06 1781.09 1156.92C1767.42 1158.79 1743.81 1167.17 1733.87 1173.39C1723.93 1179.6 1707.46 1204.77 1701.56 1216.88C1695.66 1229 1691 1243.29 1679.19 1251.68Z" fill="#FFFAFC"/>
<path d="M1660.55 1057.51C1661.05 1069.93 1669.87 1070.76 1674.22 1069.62C1675.98 1068.9 1680.37 1066.33 1683.85 1061.86C1688.2 1056.26 1689.44 1057.51 1690.06 1050.05C1690.69 1042.59 1685.4 1043.84 1681.99 1039.18C1678.57 1034.52 1669.25 1035.45 1666.14 1035.45C1663.04 1035.45 1659.93 1041.97 1660.55 1057.51Z" fill="#FFFAFC"/>
<path d="M1710.57 1040.11C1702.8 1042.91 1696.9 1053.16 1694.41 1055.02C1691.82 1059.16 1686.27 1067.7 1684.78 1068.69C1682.92 1069.93 1678.88 1074.9 1673.6 1077.08C1668.32 1079.25 1661.17 1087.33 1658.07 1093.86C1654.96 1100.38 1653.41 1101 1656.51 1107.21C1659.62 1113.43 1670.8 1107.21 1678.88 1102.55C1686.96 1097.89 1692.24 1093.86 1698.45 1087.33C1704.67 1080.81 1710.57 1075.53 1716.78 1064.96C1723 1054.4 1722.37 1055.02 1722.06 1044.15C1721.75 1033.27 1718.34 1037.31 1710.57 1040.11Z" fill="#FFFAFC"/>
<path d="M1713.36 1102.24C1713.86 1098.27 1703.84 1098.93 1698.76 1099.76C1695.35 1101.1 1687.33 1104.79 1682.61 1108.77C1676.71 1113.74 1676.71 1115.29 1673.29 1122.75C1669.87 1130.2 1673.29 1132.07 1675.15 1133C1677.02 1133.93 1698.76 1126.48 1705.91 1120.88C1713.05 1115.29 1712.74 1107.21 1713.36 1102.24Z" fill="#FFFAFC"/>
<path d="M1754.06 1105.04C1752.82 1097.58 1738.22 1102.86 1730.76 1109.7C1723.31 1116.53 1722.06 1114.67 1715.54 1118.71C1709.02 1122.75 1709.95 1129.58 1710.57 1135.17C1711.19 1140.77 1720.51 1142.63 1728.9 1142.01C1737.29 1141.39 1748.16 1135.17 1755.62 1125.54C1763.07 1115.91 1755.62 1114.36 1754.06 1105.04Z" fill="#FFFAFC"/>
<path d="M1775.81 1021.78C1769.29 1026.44 1768.97 1029.86 1761.83 1032.03C1754.68 1034.21 1752.01 1037.87 1751.27 1048.81C1750.33 1062.48 1764 1060.3 1775.81 1062.48C1787.62 1064.65 1798.49 1054.71 1800.66 1045.39C1802.84 1036.07 1797.87 1027.68 1793.83 1021.78C1789.79 1015.88 1782.33 1017.12 1775.81 1021.78Z" fill="#FFFAFC"/>
<path d="M1855.03 1045.08C1848.57 1049.8 1845.3 1065.9 1844.47 1073.35V1085.16C1844.47 1089.2 1848.82 1097.89 1855.03 1103.49C1861.24 1109.08 1866.22 1101.31 1870.56 1096.34C1874.91 1091.37 1872.74 1088.57 1873.05 1079.25C1873.36 1069.93 1877.4 1065.9 1877.4 1058.13C1877.4 1050.36 1875.23 1048.19 1870.56 1041.97C1865.9 1035.76 1863.11 1039.18 1855.03 1045.08Z" fill="#FFFAFC"/>
<path d="M1679.81 1214.09C1678.26 1206.63 1668.01 1207.87 1663.04 1212.22C1658.07 1216.57 1656.82 1219.55 1654.34 1224.03C1651.23 1229.62 1654.65 1230.86 1657.44 1236.45C1660.24 1242.05 1672.36 1236.76 1677.02 1233.97C1681.68 1231.17 1681.37 1221.54 1679.81 1214.09Z" fill="#FFFAFC"/>
<path d="M1610.53 969.276C1598.42 992.577 1601.21 1003.45 1600.28 1007.8C1600.28 1012.36 1601.65 1019.54 1607.12 1011.84C1613.95 1002.21 1614.57 1000.03 1631.35 981.703C1648.02 963.49 1648.74 960.614 1653.62 941.07L1653.72 940.695C1658.69 920.812 1655.89 915.841 1653.72 903.414C1651.54 890.987 1648.12 877.318 1643.15 892.54C1638.18 907.763 1640.05 912.113 1631.35 934.481C1622.65 956.85 1622.65 945.976 1610.53 969.276Z" fill="#FFFAFC"/>
<path d="M1777.05 884.773C1767.42 892.54 1773.95 907.452 1777.05 917.083C1779.23 920.5 1785.75 927.708 1794.45 929.199C1805.32 931.063 1809.36 917.083 1811.85 901.549C1814.33 886.016 1806.88 888.19 1798.18 878.87C1789.48 869.55 1786.68 877.006 1777.05 884.773Z" fill="#FFFAFC"/>
<path d="M1809.98 831.337C1801.28 834.134 1802.53 857.745 1802.53 859.609C1802.53 861.369 1803.09 865.449 1805.32 867.686C1808.12 870.482 1814.02 867.065 1824.27 859.609C1834.53 852.152 1830.49 846.25 1827.69 836.93C1824.9 827.609 1818.68 828.541 1809.98 831.337Z" fill="#FFFAFC"/>
<path d="M1812.16 756.776C1802.22 756.776 1788.55 773.242 1787.62 783.183C1786.68 793.125 1789.54 790.95 1791.03 794.678C1792.9 799.338 1796.62 800.581 1812.16 807.416C1827.69 814.25 1824.9 801.513 1832.97 786.29C1841.05 771.067 1836.39 772.31 1832.97 760.815C1829.56 749.32 1822.1 756.776 1812.16 756.776Z" fill="#FFFAFC"/>
<path d="M1701.87 828.231C1695.9 827.983 1694.41 812.387 1694.41 804.62V796.853C1694.41 791.572 1700.01 804.62 1704.04 804.62C1708.08 804.62 1725.48 780.077 1720.51 768.893C1715.54 757.709 1721.13 740.932 1718.65 728.505C1716.16 716.079 1721.75 687.186 1717.09 676.623C1712.43 666.06 1713.36 659.847 1706.53 654.565C1699.7 649.284 1701.87 661.09 1698.14 671.031C1694.41 680.973 1692.55 681.283 1687.27 680.351C1681.99 679.419 1671.73 674.138 1669.56 685.322C1667.39 696.506 1686.96 720.117 1690.37 734.408C1693.79 748.699 1691.62 756.777 1683.54 761.437C1675.46 766.097 1654.34 753.359 1643.77 759.883C1633.21 766.407 1642.84 799.339 1662.73 809.901C1682.61 820.464 1685.4 849.357 1698.14 858.056C1710.88 866.754 1709.33 828.542 1701.87 828.231Z" fill="#FFFAFC"/>
<path d="M1738.84 601.13C1727.66 596.16 1725.79 614.178 1727.34 622.567C1728.9 630.955 1735.98 631.763 1740.7 636.236C1746.61 641.828 1753.13 640.275 1761.21 637.79C1769.29 635.304 1768.98 622.567 1764.94 615.11C1760.9 607.654 1750.02 606.101 1738.84 601.13Z" fill="#FFFAFC"/>
<path d="M1802.84 658.915C1795.69 670.41 1787.62 660.158 1785.13 660.779C1781.3 661.297 1774.38 663.886 1777.36 670.1C1781.09 677.866 1782.64 674.138 1794.76 682.216C1806.88 690.293 1807.5 689.051 1818.06 699.303C1828.62 709.555 1835.46 705.205 1838.25 699.303C1841.05 693.4 1837.32 686.254 1833.28 670.1C1829.25 653.945 1826.76 652.391 1824.9 639.343C1823.03 626.295 1815.89 611.072 1811.54 605.169C1807.19 599.266 1799.73 596.16 1799.73 605.169C1799.73 614.179 1805.63 622.877 1807.5 639.343C1809.36 655.809 1809.98 647.42 1802.84 658.915Z" fill="#FFFAFC"/>
<path d="M1557.72 478.725C1551.82 469.716 1545.29 471.58 1538.77 470.337C1532.24 469.095 1536.03 480.217 1538.77 486.182C1542.18 493.638 1542.5 496.434 1549.95 502.647C1557.41 508.861 1560.2 507.929 1565.17 496.434C1570.14 484.939 1563.62 487.735 1557.72 478.725Z" fill="#FFFAFC"/>
<path d="M1657.44 482.453C1651.54 474.997 1643.77 480.279 1641.6 480.279C1638.6 481.832 1632.71 486.306 1633.21 491.774C1633.83 498.608 1634.14 499.851 1639.74 507.618C1645.33 515.385 1652.78 512.589 1659.31 511.657C1665.83 510.725 1666.45 506.375 1666.76 494.88C1667.07 483.385 1663.35 489.91 1657.44 482.453Z" fill="#FFFAFC"/>
<path d="M1700.94 407.581C1694.97 401.865 1681.68 407.581 1677.64 412.863C1673.6 418.144 1665.65 420.443 1666.14 429.639C1666.76 441.134 1666.45 442.377 1674.22 452.318C1681.99 462.26 1693.48 461.638 1703.42 461.017C1713.36 460.396 1713.99 457.6 1719.27 445.173C1724.55 432.746 1719.89 431.814 1716.47 421.872C1713.05 411.931 1708.39 414.727 1700.94 407.581Z" fill="#FFFAFC"/>
<path d="M1598.73 347.311C1590.34 345.136 1588.48 355.388 1587.23 357.252C1585.99 359.116 1583.94 360.297 1584.44 363.777C1585.06 368.126 1585.06 366.883 1591.58 376.514C1598.11 386.145 1604.01 378.999 1610.53 373.407C1617.06 367.815 1613.95 364.087 1611.78 355.078C1609.6 346.068 1607.12 349.486 1598.73 347.311Z" fill="#FFFAFC"/>
<path d="M1490.3 431.814C1486.88 424.047 1475.7 423.426 1471.04 426.533C1466.38 429.639 1465.95 434.859 1465.45 443.309C1464.83 453.872 1465.45 453.25 1473.22 456.978C1480.98 460.706 1489.06 458.842 1494.34 451.697C1499.62 444.552 1493.72 439.581 1490.3 431.814Z" fill="#FFFAFC"/>
<path d="M1554.3 285.798C1549.02 278.963 1546.84 285.798 1542.5 279.895C1538.15 273.992 1536.84 286.233 1535.35 287.973C1533.49 290.147 1531.62 295.118 1532.24 306.924C1532.86 318.729 1535.97 317.176 1544.67 324.01C1553.37 330.845 1559.27 326.185 1564.24 320.282C1569.21 314.38 1567.97 305.992 1566.11 297.914C1564.24 289.837 1559.58 292.633 1554.3 285.798Z" fill="#FFFAFC"/>
<path d="M1347.39 298.536C1339.32 298.225 1329.69 302.885 1329.06 309.72C1328.44 316.555 1329.5 318.294 1331.24 325.253C1333.41 333.952 1341.49 335.195 1353.61 338.612C1365.72 342.03 1372.56 333.02 1380.64 325.253C1388.71 317.487 1389.02 313.448 1385.61 304.749C1382.19 296.05 1379.7 300.089 1368.52 301.332C1357.33 302.574 1355.47 298.846 1347.39 298.536Z" fill="#FFFAFC"/>
<path d="M1457.37 219.004C1452.09 219.004 1449.6 229.567 1449.29 232.984C1449.29 234.227 1449.73 236.961 1451.47 237.955C1453.64 239.198 1456.13 240.751 1462.03 248.518C1467.93 256.285 1469.18 251.935 1477.25 254.11C1485.33 256.285 1485.02 250.071 1487.51 244.168C1489.99 238.266 1487.2 232.984 1485.02 226.771C1482.85 220.557 1476.94 221.8 1471.35 219.004C1465.76 216.208 1462.65 219.004 1457.37 219.004Z" fill="#FFFAFC"/>
<path d="M1368.21 199.431C1362.62 200.674 1369.76 211.858 1370.69 215.276C1371.63 218.693 1375.79 218.631 1377.53 219.625C1379.7 220.868 1383.12 221.179 1385.92 223.975C1388.71 226.771 1386.85 228.324 1389.33 233.916C1391.82 239.508 1398.97 234.848 1403 229.567C1407.04 224.285 1407.04 222.732 1406.42 215.276C1405.8 207.82 1401.45 205.645 1397.41 203.16C1393.37 200.674 1385.61 198.499 1381.88 197.257C1378.15 196.014 1373.8 198.189 1368.21 199.431Z" fill="#FFFAFC"/>
<path d="M1201.38 254.42C1195.41 258.396 1197.03 270.575 1198.27 279.895C1199.51 289.215 1207.96 288.967 1216.91 291.7C1228.1 295.118 1230.27 284.866 1234 277.41C1237.73 269.953 1238.66 265.293 1235.86 257.216C1233.07 249.138 1227.16 254.42 1216.91 249.449C1206.66 244.478 1208.83 249.449 1201.38 254.42Z" fill="#FFFAFC"/>
<path d="M1186.15 318.108C1173.11 309.098 1173.11 312.516 1164.41 320.904C1155.71 329.292 1149.74 325.626 1145.77 332.088C1140.8 340.166 1142.35 342.03 1143.59 354.457C1144.84 366.883 1153.84 366.883 1164.41 373.097C1174.97 379.31 1183.36 371.543 1197.65 360.981C1211.94 350.418 1204.48 347.311 1203.55 333.952C1202.62 320.593 1199.2 327.117 1186.15 318.108Z" fill="#FFFAFC"/>
<path d="M1214.12 138.229C1207.9 137.918 1209.14 154.384 1208.52 158.733C1208.52 159.665 1209.14 162.275 1211.63 165.257C1214.74 168.985 1219.4 167.121 1230.27 166.811C1241.14 166.5 1241.76 163.704 1241.45 154.073C1241.14 144.442 1238.66 149.102 1230.27 142.268C1221.88 135.433 1220.33 138.54 1214.12 138.229Z" fill="#FFFAFC"/>
<path d="M1140.18 105.608C1129.92 105.919 1139.55 123.938 1140.18 125.491C1141.73 127.562 1146.14 133.134 1151.36 138.85C1157.88 145.996 1161.3 140.404 1172.17 138.85C1183.05 137.297 1178.08 133.569 1178.39 119.899C1178.7 106.23 1170 115.55 1161.3 110.579C1152.6 105.608 1150.43 105.298 1140.18 105.608Z" fill="#FFFAFC"/>
<path d="M960.296 165.568C949.423 172.713 953.461 198.188 952.529 199.431V205.334C952.529 211.237 964.335 205.334 976.451 192.596C988.567 179.859 990.431 179.859 1000.06 169.607C1009.69 159.354 1008.76 157.49 1007.83 146.306C1006.9 135.122 995.713 146.306 983.596 146.306C971.48 146.306 971.17 158.422 960.296 165.568Z" fill="#FFFAFC"/>
<path d="M1036.1 152.209C1016.53 156.87 1025.23 183.587 1023.67 187.937C1021.39 196.739 1021.5 214.22 1040.14 213.722C1063.44 213.101 1064.99 180.791 1063.44 171.471C1061.89 162.151 1055.67 147.549 1036.1 152.209Z" fill="#FFFAFC"/>
<path d="M911.21 99.7052C888.593 93.4918 884.493 121.142 891.638 130.772C898.783 140.403 913.385 137.297 920.53 135.122C927.676 132.947 939.482 107.472 911.21 99.7052Z" fill="#FFFAFC"/>
<path d="M807.134 221.446L807.135 221.489C807.445 239.197 817.076 260.012 831.056 253.488C845.037 246.964 842.241 219.004 845.969 209.373C849.697 199.742 873.308 174.267 839.755 172.092C806.23 169.919 806.823 203.726 807.134 221.446Z" fill="#FFFAFC"/>
<path d="M687.526 312.516C679.759 321.215 683.798 343.583 683.798 343.583C683.798 343.583 687.526 356.321 692.808 365.33C698.089 374.34 708.652 372.476 721.7 367.194C734.748 361.913 734.438 350.107 738.166 338.302C741.894 326.496 723.875 312.516 715.797 307.235C707.72 301.953 695.293 303.817 687.526 312.516Z" fill="#FFFAFC"/>
<path d="M628.809 250.071C617.873 260.013 615.139 272.129 614.518 282.692C613.897 293.255 620.607 295.802 628.809 299.779C639.061 304.749 648.381 300.089 654.595 293.255C660.808 286.42 669.818 257.838 666.4 248.207C662.983 238.576 642.479 237.644 628.809 250.071Z" fill="#FFFAFC"/>
<path d="M500.191 274.925C484.347 286.419 466.949 302.264 465.085 314.069C463.221 325.875 481.24 317.611 492.424 315.623C506.404 313.137 522.559 314.069 531.258 310.652C539.957 307.234 555.18 292.944 558.597 285.487C562.015 278.031 602.713 268.4 607.062 256.595C611.412 244.789 605.82 235.159 593.393 229.256C580.966 223.353 565.122 227.702 551.452 236.712C537.782 245.721 516.035 263.43 500.191 274.925Z" fill="#FFFAFC"/>
<path d="M374.99 356.01C367.223 370.301 338.641 370.612 341.127 379.621C343.612 388.631 357.903 388.009 365.359 381.796C374.679 374.029 396.426 373.718 406.368 366.573C416.309 359.428 445.202 364.709 454.522 356.01C463.842 347.311 461.357 348.243 452.347 341.098C443.338 333.952 410.407 333.331 401.708 332.399C393.009 331.467 382.757 341.719 374.99 356.01Z" fill="#FFFAFC"/>
<path d="M577.238 400.747C569.036 401.741 568.435 412.553 569.16 417.834C569.16 420.112 569.844 425.29 572.577 427.775C575.957 430.848 577.21 430.882 588.357 431.183L588.732 431.193C600.227 431.504 595.567 427.154 599.917 417.834C604.266 408.514 600.538 405.407 595.567 398.572C590.596 391.738 587.49 399.504 577.238 400.747Z" fill="#FFFAFC"/>
<path d="M357.593 401.057C345.663 407.768 354.486 426.222 361.942 428.707C369.398 431.192 379.712 432.186 384.932 428.707C391.456 424.357 387.417 408.513 379.961 399.504C372.505 390.494 372.505 392.669 357.593 401.057Z" fill="#FFFAFC"/>
<path d="M418.484 419.698C411.96 411.31 400.776 425.911 399.223 428.086C398.498 428.707 396.427 430.758 393.941 433.989C390.834 438.027 399.223 446.105 403.572 449.833C407.921 453.561 416.931 449.522 420.038 441.445C423.144 433.367 425.008 428.086 418.484 419.698Z" fill="#FFFAFC"/>
<path d="M395.184 456.357C393.009 450.454 383.689 448.901 377.165 452.939C370.641 456.978 372.753 456.978 371.262 459.464C369.398 462.57 372.194 468.473 374.99 473.754C377.786 479.036 385.553 476.24 391.767 475.619C397.98 474.997 397.359 462.26 395.184 456.357Z" fill="#FFFAFC"/>
<path d="M309.128 491.152C302.604 491.152 297.011 483.696 286.759 487.735C276.507 491.774 275.078 496.185 273.09 505.133C270.604 516.317 281.167 525.016 288.002 533.404C294.837 541.792 313.166 547.384 320.623 546.763C328.079 546.141 332.428 541.792 331.496 533.404C330.564 525.016 332.739 513.831 336.467 509.171C340.195 504.511 359.456 501.094 361.01 495.191C362.563 489.288 362.253 479.658 361.01 475.929C359.767 472.201 345.476 469.405 339.884 468.473C334.292 467.541 326.215 472.823 323.729 477.172C321.244 481.522 315.652 491.152 309.128 491.152Z" fill="#FFFAFC"/>
<path d="M224.003 548.005C219.033 557.947 211.887 557.636 205.984 565.092C200.082 572.548 201.636 576.587 207.848 576.587C214.061 576.587 221.829 570.995 231.77 561.675C241.712 552.355 245.44 548.005 250.1 536.821C254.76 525.637 251.964 513.831 250.1 506.375C248.236 498.919 241.401 509.793 235.188 520.666C228.974 531.54 230.217 535.579 224.003 548.005Z" fill="#FFFAFC"/>
<path d="M349.902 598.602C340.271 605.437 343.454 621.238 350.834 626.252C358.214 631.265 369.226 632.341 376.93 634.329C386.561 636.815 385.319 633.708 392.153 625.009C398.988 616.31 394.328 616.31 389.979 605.126C385.629 593.942 381.28 596.117 371.96 591.457C362.639 586.797 359.533 591.767 349.902 598.602Z" fill="#FFFAFC"/>
<path d="M210.023 675.691C206.295 667.987 182.373 666.682 174.296 669.789C166.218 672.895 162.615 676.996 159.384 682.215C155.345 688.74 160.937 700.856 171.81 712.351C182.684 723.846 211.266 712.04 214.683 703.652C218.101 695.264 214.683 685.322 210.023 675.691Z" fill="#FFFAFC"/>
<path d="M140.433 760.194C134.219 760.94 132.044 758.952 133.909 768.272C135.773 777.592 129.683 779.518 130.18 785.98C130.802 794.058 137.637 791.883 148.821 795.611C160.005 799.339 164.044 790.64 168.393 785.048C172.743 779.456 166.529 766.408 162.49 761.748C158.452 757.088 148.199 759.262 140.433 760.194Z" fill="#FFFAFC"/>
<path d="M247.925 847.493C230.838 842.211 214.994 856.502 208.159 863.648C201.324 870.793 200.827 891.67 206.295 895.647C213.13 900.618 220.896 895.647 225.556 902.171C230.217 908.695 225.867 910.87 226.488 919.879C227.11 928.889 242.643 931.685 251.342 931.996C260.041 932.306 280.235 919.879 283.031 912.113C285.827 904.346 286.138 896.579 280.235 895.647C274.332 894.715 262.837 893.783 262.216 889.434C261.594 885.084 274.643 873.279 274.021 861.162C273.4 849.046 265.012 852.774 247.925 847.493Z" fill="#FFFAFC"/>
<path d="M1238.66 643.071C1234.43 650.03 1244.25 681.283 1247.98 692.157C1251.71 703.03 1254.07 707.628 1262.27 727.263C1272.52 751.806 1276.11 756.75 1281.53 753.359C1286.5 750.253 1286.5 743.729 1289.92 732.855C1293.34 721.981 1314.77 779.766 1323.78 792.504C1332.79 805.242 1336.21 794.679 1333.72 782.562C1331.24 770.446 1321.3 747.767 1319.12 732.855C1316.95 717.943 1317.26 695.885 1311.67 683.147C1306.07 670.41 1266.62 623.498 1255.75 610.761C1244.87 598.023 1254.19 617.285 1262.27 632.197C1270.35 647.11 1272.83 653.944 1272.21 662.332C1271.59 670.721 1262.89 659.847 1255.75 651.459C1248.6 643.071 1243.94 634.372 1238.66 643.071Z" fill="#FFFAFC"/>
</svg>
