<svg width="1985" height="2725" viewBox="0 0 1985 2725" fill="none" xmlns="http://www.w3.org/2000/svg">
<path d="M515.362 662.647L590.022 689.311L787.337 689.311L834 721.308H891.328L900.66 703.976C895.772 692.422 885.728 666.38 884.662 654.647C883.595 642.915 893.994 637.316 907.326 634.649C951.322 630.649 976.812 636.472 972.654 630.649C965.988 621.317 931.324 557.323 931.324 551.99C931.324 546.657 951.322 523.992 956.655 521.326C960.922 519.193 931.769 462.665 916.659 434.667C943.323 419.113 1000.92 384.805 1017.98 372.006C1035.05 359.207 1059.76 337.343 1069.98 328.01C1018.78 331.21 969.543 313.345 951.322 304.012C990.786 262.416 1000.65 180.023 1000.65 144.027C956.922 192.022 883.773 215.576 852.665 221.353C843.332 164.025 750.007 -1.29366 752.674 33.3699C755.34 68.0334 711.344 206.688 699.345 218.687C687.346 230.685 567.357 162.692 559.358 164.025C551.358 165.358 586.022 313.345 582.022 320.011C578.023 326.677 458.033 337.343 448.701 342.675C441.235 346.942 507.807 404.892 542.026 433.334C534.027 451.999 434.036 471.997 430.036 479.996C426.836 486.396 480.254 525.326 507.362 543.991L467.366 591.986L546.026 615.984L515.362 662.647Z" fill="#B5E3FB" stroke="black" stroke-width="7.99928" stroke-linecap="round" stroke-linejoin="round"/>
<path d="M491.364 1389.25C491.364 1382.85 501.141 1376.8 506.03 1374.58L768.673 1319.92L860.664 1425.24C887.329 1500.79 940.924 1652.16 941.99 1653.22C943.057 1654.29 975.321 1928.31 991.319 2065.19L981.987 2058.52C953.989 2041.19 899.481 2031.56 851.332 2027.86C799.336 2023.86 728.676 2029.19 696.679 2026.52C665.662 2023.94 548.692 2029.19 516.695 2038.52C491.098 2045.99 442.924 2060.3 422.037 2066.52V2029.19L458.034 1806.54L462.034 1491.91C471.81 1460.35 491.364 1395.65 491.364 1389.25Z" fill="#CBE5CA" stroke="black" stroke-width="7.99928" stroke-linecap="round" stroke-linejoin="round"/>
<path d="M580.689 658.647C576.689 658.647 552.692 670.646 551.358 670.646L532.693 701.31L596.688 771.97L660.682 770.637L662.015 687.977C636.24 678.201 583.889 658.647 580.689 658.647Z" fill="#DBD6D0" stroke="black" stroke-width="7.99928" stroke-linecap="round" stroke-linejoin="round"/>
<path d="M551.358 685.311C550.292 674.645 570.468 664.868 580.689 661.313L540.693 669.313C534.027 670.646 518.028 679.978 514.028 681.311C510.029 682.645 475.365 1209.26 475.365 1217.26C475.365 1225.26 486.031 1363.92 488.697 1375.92C491.364 1387.91 514.028 1441.24 519.361 1450.58C524.694 1459.91 547.365 1468.56 587.355 1469.24C666.015 1470.57 751.34 1435.91 763.339 1433.24C772.938 1431.11 822.445 1381.25 844.665 1366.58L712.677 1199.93L676.68 1070.61L654.016 933.289L650.016 741.306C635.795 747.083 601.487 754.105 578.023 735.973C548.692 713.309 552.692 698.643 551.358 685.311Z" fill="#9FE6E8" stroke="black" stroke-width="7.99928" stroke-linecap="round" stroke-linejoin="round"/>
<path d="M592.688 1419.91C602.02 1437.24 602.02 1441.24 603.353 1451.91" stroke="black" stroke-width="7.99928" stroke-linecap="round" stroke-linejoin="round"/>
<path d="M704.678 1390.58C711.344 1405.25 712.677 1411.91 711.344 1430.58" stroke="black" stroke-width="7.99928" stroke-linecap="round" stroke-linejoin="round"/>
<path d="M414.038 2549.14L403.372 2423.82L462.033 2417.16L472.699 2530.48L466.033 2542.48L414.038 2549.14Z" fill="#FCFAFB" stroke="black" stroke-width="7.99928" stroke-linecap="round" stroke-linejoin="round"/>
<path d="M403.372 2530.48C411.371 2524.48 408.5 2526 446.035 2522.48C483.569 2518.96 473.64 2520.71 480 2520C486.361 2519.29 490.5 2527 494.03 2538.48C502.043 2564.53 516.028 2629.14 507.363 2635.8C490.031 2649.13 447.497 2651.22 390.04 2653.13C310.047 2655.8 290.049 2646.47 290.049 2638.47C290.049 2630.47 311.38 2607.8 320.713 2597.14C331.687 2584.6 391.305 2539.53 403.372 2530.48Z" fill="#313131" stroke="black" stroke-width="7.99928" stroke-linecap="round" stroke-linejoin="round"/>
<path d="M807.335 2547.81L782.004 2421.15L836.666 2413.16L864.663 2530.48L861.997 2538.48L807.335 2547.81Z" fill="#FCFAFB" stroke="black" stroke-width="7.99928" stroke-linecap="round" stroke-linejoin="round"/>
<path d="M747.336 2581.14L747.34 2581.14C770.005 2558.48 778.004 2545.14 790.003 2537.14C802.002 2529.14 800 2532 832.666 2525.15C872.663 2516.75 868.663 2521.15 872.663 2529.14L872.663 2529.14C876.663 2537.15 915.325 2614.47 901.993 2630.47C888.661 2646.47 880.662 2653.13 790.003 2659.8C699.345 2666.47 684.679 2649.13 694.012 2637.14C703.344 2625.14 724.673 2603.81 747.336 2581.14Z" fill="#313131" stroke="black" stroke-width="7.99928" stroke-linecap="round" stroke-linejoin="round"/>
<path d="M314.047 253.35C303.381 225.352 255.385 202.688 230.054 196.022L227.388 230.685L259.385 266.682L314.047 253.35Z" fill="#FCFAFB" stroke="black" stroke-width="7.99928" stroke-linecap="round" stroke-linejoin="round"/>
<path d="M226.055 226.686L282.05 156.025L327.379 185.356L272.717 266.682L226.055 226.686Z" fill="#9FE6E8" stroke="black" stroke-width="7.99928" stroke-linecap="round" stroke-linejoin="round"/>
<path d="M230.054 196.022C248.186 239.751 293.604 252.461 314.046 253.35C314.046 255.572 299.254 273.449 292.715 282.681C270.05 314.678 209.794 402.516 192.724 432C178.059 457.332 123.642 525.465 126.063 539.991C130.063 563.989 365.108 620.846 423.37 638.649C471.366 653.314 543.803 662.202 572.69 663.98C563.357 670.646 553.453 683.978 550.025 691.977C546.026 701.31 532.693 733.307 520.694 818.632C508.696 903.958 504.095 1135.19 495.363 1175.93C487.364 1213.26 490.031 1442.5 490.031 1454.58C490.031 1465.24 484.253 1636.34 484.698 1719.88L438.035 1886.54C433.147 1872.32 428.703 1835.87 428.703 1798.54C428.703 1751.41 438.035 1575.9 438.035 1471.91C438.035 1369.21 422.037 1275.92 420.703 1238.59C419.324 1199.96 418.037 1111.94 418.037 1093.27C418.037 1074.61 411.371 1051.94 410.038 1001.28C408.705 950.62 408.928 904.506 415.371 862.628C420.703 827.965 442.288 741.71 435.369 730.64C432.623 726.247 396.903 722.554 358.042 711.975C302.555 696.871 252.719 678.778 230.054 671.979C196.724 661.98 90.0665 634.649 36.738 614.651C-5.92484 598.652 2.07443 561.767 11.4069 545.324C37.1824 507.549 91.1331 428.001 100.732 412.002C110.331 396.004 190.946 261.349 230.054 196.022Z" fill="#FCFAFB" stroke="black" stroke-width="7.99928" stroke-linecap="round" stroke-linejoin="round"/>
<path d="M514.029 705.309C499.363 726.641 479.365 765.304 468.699 783.969C463.366 793.301 448.849 825.299 427.37 863.962C413.297 889.293 407.372 898.181 404.705 902.625C426.481 921.734 469.766 963.686 468.699 967.952C467.633 972.219 430.036 1012.84 411.371 1031.95C418.037 1064.83 435.651 1130.09 439.369 1147.94C446.035 1179.93 451.368 1205.26 458.034 1239.93" stroke="black" stroke-width="7.99928" stroke-linecap="round" stroke-linejoin="round"/>
<path d="M126.063 534.658C124.73 535.991 94.066 586.653 90.0664 593.319" stroke="black" stroke-width="7.99928" stroke-linecap="round" stroke-linejoin="round"/>
<path d="M276.716 156.025C268.184 172.024 280.716 176.024 288.715 181.356C293.676 184.664 296.715 188.022 307.38 192.022C318.889 196.338 347.154 197.613 355.376 190.689C380.707 169.357 355.376 149.36 358.042 146.693C359.375 145.36 366.042 168.024 374.041 166.691C382.04 165.358 399.372 162.691 411.371 161.358C428.647 159.439 475.365 114.696 478.031 104.03C480.165 95.4975 468.255 82.6986 462.033 77.3658C469.499 68.8332 469.588 61.3672 468.699 58.7008C456.7 33.3697 379.374 6.70549 375.374 4.03907C371.374 1.37264 287.382 136.027 276.716 156.025Z" fill="#DBD6D0"/>
<path d="M358.042 146.693C359.375 145.36 366.042 168.024 374.041 166.691C382.04 165.358 399.372 162.691 411.371 161.358C428.647 159.439 475.365 114.696 478.031 104.03C480.165 95.4975 468.255 82.6986 462.033 77.3658C469.499 68.8332 469.588 61.3672 468.699 58.7008C456.7 33.3697 379.374 6.70549 375.374 4.03907C371.374 1.37264 287.382 136.027 276.716 156.025C268.184 172.024 280.716 176.024 288.715 181.356C293.676 184.664 296.715 188.022 307.38 192.022C318.889 196.338 347.154 197.613 355.376 190.689C380.707 169.357 355.376 149.36 358.042 146.693ZM358.042 146.693C358.042 140.027 362.042 140.027 380.707 141.36" stroke="black" stroke-width="7.99928" stroke-linecap="round" stroke-linejoin="round"/>
<path d="M360.709 94.6975C378.485 98.6971 415.904 108.03 423.37 113.362C432.703 120.029 411.371 141.36 406.038 148.026C401.772 153.359 393.151 160.469 388.706 164.025" stroke="black" stroke-width="7.99928" stroke-linecap="round" stroke-linejoin="round"/>
<path d="M368.708 66.7C375.374 68.0332 440.702 85.3649 440.702 94.6974C440.702 102.163 430.036 116.473 424.703 122.695" stroke="black" stroke-width="7.99928" stroke-linecap="round" stroke-linejoin="round"/>
<path d="M384.706 40.0359C406.482 47.5908 450.3 65.6336 451.367 77.3659C452.433 89.0981 443.812 98.2529 439.368 101.364" stroke="black" stroke-width="7.99928" stroke-linecap="round" stroke-linejoin="round"/>
<path d="M463.366 77.3657L452.7 80.0321" stroke="black" stroke-width="7.99928" stroke-linecap="round" stroke-linejoin="round"/>
<path d="M563.357 1538.57C563.357 1528.97 543.359 1505.24 540.692 1493.24L542.025 1477.24L706.011 1455.91L783.337 1433.24L811.334 1435.91L836.665 1425.24L860.663 1529.24C859.33 1543.46 858.164 1566.57 856.664 1578.56C855.33 1589.23 849.998 1621.23 848.664 1635.89C846.968 1654.56 843.332 1677.22 841.998 1691.89C840.544 1707.89 837.999 1726.55 836.665 1743.88C835.219 1762.68 829.999 1794.54 828.666 1802.54C827.333 1810.54 822.472 1843.71 819.334 1862.54L808.668 1926.53C807.335 1934.53 800.669 1985.19 798.002 1999.86C795.512 2013.55 792.669 2034.52 791.336 2053.19C789.993 2071.99 796.847 2110.52 799.335 2119.85C801.824 2129.18 805.602 2147.85 810.001 2177.18C814.401 2206.51 815.563 2217.17 822 2249.17C828.437 2281.17 831.333 2298.5 835.332 2321.16C839.332 2343.83 841.998 2351.83 844.665 2378.49C847.331 2405.16 849.998 2410.49 849.998 2426.49C849.998 2437.15 822 2439.55 814.001 2441.15C774.004 2449.15 775.338 2438.49 774.004 2433.15C772.005 2425.15 772.005 2411.82 768.672 2393.16C762.005 2355.83 756.673 2330.5 748.673 2298.5C739.476 2261.71 739.341 2249.17 732.675 2219.84C726.009 2190.51 717.696 2157.18 712.677 2135.85C707.971 2115.85 703.344 2049.19 704.677 2033.19C705.788 2019.86 706.011 2010.53 707.344 1994.53C709.008 1974.55 712.551 1955.79 714.01 1941.2C715.343 1927.87 716.676 1918.53 718.009 1902.53C719.03 1890.29 721.92 1866.54 723.342 1845.21C724.676 1825.21 731.547 1766.55 734.008 1750.55C736.674 1733.22 741.436 1693.22 743.341 1679.89C744.674 1670.56 752.012 1619.85 752.673 1614.56C754.006 1603.89 756.673 1577.23 756.673 1577.23C756.673 1577.23 714.01 1577.23 698.011 1578.56C682.013 1579.9 658.015 1581.23 658.015 1581.23C658.015 1581.23 650.016 1601.23 643.35 1615.89C637.833 1628.03 611.352 1681.22 602.02 1695.89C592.688 1710.55 570.023 1763.88 551.358 1797.21C532.693 1830.54 522.027 1858.54 515.361 1869.2C508.695 1879.87 486.03 1933.2 479.364 1945.2C474.032 1954.8 463.366 1977.64 458.033 1989.19C454.033 1995.42 448.226 2008.89 438.035 2025.19C424.703 2046.52 432.702 2047.85 438.035 2067.85C444.574 2092.38 444.701 2101.18 444.701 2127.85C444.701 2154.51 444.984 2161.18 446.034 2195.84C447.084 2230.51 451.367 2247.84 455.366 2275.83C459.366 2303.83 459.366 2303.83 463.366 2325.16C467.365 2346.49 467.214 2343.83 470.623 2367.83C474.031 2391.82 475.365 2411.82 475.365 2418.49C475.365 2425.15 478.031 2433.15 471.365 2434.49C464.699 2435.82 431.369 2438.49 410.037 2438.49C388.706 2438.49 390.315 2441.15 387.373 2431.82C384.43 2422.49 382.04 2361.16 378.04 2322.5C376.868 2311.17 371.73 2263.84 366.041 2221.17C360.708 2181.18 359.375 2167.84 355.375 2131.85C352.709 2107.85 352.198 2112.78 346.043 2075.85C342.043 2051.85 336.05 2041.01 344.71 2017.19C353.37 1993.38 367.374 1963.86 370.041 1957.2C372.707 1950.53 419.37 1851.87 422.036 1847.87C424.703 1843.87 448.7 1794.54 463.366 1763.88C478.854 1731.5 488.697 1699.89 506.029 1665.22C521.781 1633.72 529.36 1611.89 543.359 1583.9C556.024 1558.57 563.357 1550.57 563.357 1538.57Z" fill="#796230" stroke="black" stroke-width="7.99928" stroke-linecap="round" stroke-linejoin="round"/>
<path d="M630.018 1582.56C638.017 1581.23 655.349 1581.23 656.682 1581.23" stroke="black" stroke-width="7.99928" stroke-linecap="round" stroke-linejoin="round"/>
<path d="M760.672 1549.23C759.784 1555.45 756.673 1571.9 756.673 1577.23" stroke="black" stroke-width="7.99928" stroke-linecap="round" stroke-linejoin="round"/>
<path d="M995.318 598.652C996.385 555.989 1042.43 531.992 1064.65 526.659L1071.31 549.323L1035.31 590.653L1013.98 602.652L995.318 598.652Z" fill="#FCFAFB" stroke="black" stroke-width="7.99928" stroke-linecap="round" stroke-linejoin="round"/>
<path d="M968.655 555.989C966.522 551.723 975.321 544.879 979.32 543.991L1012.64 504.004C1012.64 503.994 1012.65 503.994 1012.65 503.994L1012.64 504.004C1012.62 504.135 1013.44 506.025 1041.98 533.325C1072.65 562.656 1067.31 565.322 1067.31 565.322L1013.98 606.652C999.763 591.542 970.788 560.256 968.655 555.989Z" fill="#9FE6E8"/>
<path d="M979.32 543.991C975.321 544.879 966.522 551.723 968.655 555.989C970.788 560.256 999.763 591.542 1013.98 606.652L1067.31 565.322C1067.31 565.322 1072.65 562.656 1041.98 533.325C1011.32 503.994 1012.65 503.994 1012.65 503.994L979.32 543.991Z" stroke="black" stroke-width="7.99928" stroke-linecap="round" stroke-linejoin="round"/>
<path d="M995.319 598.652C1045.45 578.387 1062.42 542.213 1064.65 526.659C1078.87 545.768 1110.77 585.32 1113.97 590.653C1117.97 597.319 1228.88 723.374 1235.3 742.639C1239.3 754.638 1241.33 783.945 1224.63 797.301C1204.63 813.3 1116.64 802.634 1075.31 802.634C1037.98 802.634 882.201 795.54 855.331 793.301C823.334 790.635 779.338 790.635 768.672 790.635C758.007 790.635 768.672 853.296 768.672 883.96C768.672 917.495 771.339 958.62 775.338 1001.28C778.843 1038.66 783.42 1101.45 790.004 1142.6C795.337 1175.93 815.335 1225.26 831.333 1250.59C846.298 1274.29 906.067 1381.37 923.325 1410.58C940.657 1439.91 968.654 1503.9 972.654 1530.57C976.458 1555.93 993.985 1677.22 997.985 1698.55C1001.98 1719.88 1007.32 1807.81 1007.32 1821.21C1007.32 1837.21 1009.98 1939.86 1007.32 1995.86C1004.65 2051.85 985.986 2118.52 985.986 2118.52C983.32 2062.08 973.987 1958.53 967.321 1930.53C960.02 1899.87 943.323 1789.21 932.658 1762.55C920.925 1733.22 887.328 1625.23 876.663 1598.56C868.144 1577.27 815.89 1439.69 798.003 1403.91C779.338 1366.58 726.009 1264.88 695.346 1207.93C667.348 1155.94 655.616 1091.04 648.683 1045.28C642.017 1001.28 638.017 937.288 638.017 906.625C638.017 891.719 635.069 783.695 638.017 767.97C642.017 746.639 650.461 709.309 656.682 687.978L828.667 699.976C843.332 701.31 856.664 701.31 880.662 702.643C919.325 704.791 963.321 705.754 1000.65 707.976C1030.87 709.753 1090.24 711.975 1085.98 706.643C1081.71 701.31 1023.76 632.427 995.319 598.652Z" fill="#FCFAFB" stroke="black" stroke-width="7.99928" stroke-linecap="round" stroke-linejoin="round"/>
<path d="M678.013 741.306C695.345 787.969 728.675 885.56 723.343 902.625C716.677 923.956 667.348 959.953 668.681 965.286C670.014 970.619 730.009 1014.61 730.009 1023.95C730.009 1033.28 734.008 1229.26 734.008 1241.26C734.008 1247.93 735.341 1253.26 735.341 1253.26" stroke="black" stroke-width="7.99928" stroke-linecap="round" stroke-linejoin="round"/>
<path d="M1083.31 703.976L1149.97 781.302" stroke="black" stroke-width="7.99928" stroke-linecap="round" stroke-linejoin="round"/>
<path d="M548.692 517.326C563.427 505.539 579.8 507.105 586.022 510.66C587.8 538.213 590.288 593.853 586.022 595.986C580.689 598.652 539.864 575.338 535.36 557.323C532.693 546.657 535.36 527.992 548.692 517.326Z" fill="#DBD6D0" stroke="black" stroke-width="7.99928" stroke-linecap="round" stroke-linejoin="round"/>
<path d="M786.004 264.016C727.343 257.35 679.792 286.68 667.348 297.346C654.016 310.678 640.684 317.344 612.687 377.339C577.298 453.173 542.524 607.675 588.689 702.643C635.351 798.634 750.985 783.27 784.671 765.304C824.668 743.972 864.664 670.646 869.997 634.649C873.552 610.651 919.135 541.324 923.325 511.993C927.516 482.663 933.458 393.604 915.326 352.008C892.661 300.012 861.883 272.638 786.004 264.016Z" fill="#DBD6D0" stroke="black" stroke-width="7.99928" stroke-linecap="round" stroke-linejoin="round"/>
<path d="M783.337 470.664C783.337 509.688 752.159 538.658 715.344 538.658C678.528 538.658 640.684 509.688 640.684 470.664C640.684 431.639 679.347 400.003 714.01 400.003C750.826 400.003 783.337 431.639 783.337 470.664Z" fill="white" stroke="black" stroke-width="7.99928"/>
<path d="M740.675 514.929C740.675 520.084 735.899 522.789 730.009 522.789C724.118 522.789 719.137 520.084 719.137 514.929C719.137 509.775 730.009 505.058 734.009 503.994C739.899 503.994 740.675 509.775 740.675 514.929Z" fill="black"/>
<path d="M917.992 517.326C917.992 551.098 891.673 577.321 859.33 577.321C826.987 577.321 795.336 548.252 795.336 514.48C795.336 480.709 822.212 453.332 852.664 453.332C885.007 453.332 917.992 483.555 917.992 517.326Z" fill="white" stroke="black" stroke-width="7.99928"/>
<path d="M877.995 553.323C877.995 558.477 873.22 559.989 867.33 559.989C861.439 559.989 856.664 555.811 856.664 550.657C856.664 545.502 864.663 543.99 871.329 541.274C877.22 541.274 877.995 548.169 877.995 553.323Z" fill="black"/>
<path d="M620.686 514.66C625.13 533.325 645.75 569.055 692.679 562.656" stroke="black" stroke-width="7.99928" stroke-linecap="round" stroke-linejoin="round"/>
<path d="M754.007 563.989C755.784 583.543 762.569 620.547 767.339 625.317C772.672 630.649 783.338 634.649 792.67 597.319C800.136 567.455 795.336 553.323 795.336 553.323" stroke="black" stroke-width="7.99928" stroke-linecap="round" stroke-linejoin="round"/>
<path d="M884.662 598.652C879.329 601.319 865.997 604.518 849.999 601.319C834 598.119 820.223 590.209 815.335 586.653" stroke="black" stroke-width="7.99928" stroke-linecap="round" stroke-linejoin="round"/>
<path d="M658.016 637.315C650.016 629.316 624.685 627.983 620.686 627.983C606.514 627.983 595.355 653.314 638.018 677.312" stroke="black" stroke-width="7.99928" stroke-linecap="round" stroke-linejoin="round"/>
<path d="M640.684 643.981C662.904 669.757 731.342 716.508 827.333 697.31" stroke="black" stroke-width="7.99928" stroke-linecap="round" stroke-linejoin="round"/>
<path d="M810.002 675.979C824.667 675.979 839.333 682.111 843.332 685.311C849.998 690.644 845.999 694.644 844.665 697.31L834 714.642C834 714.642 827.334 725.307 810.002 725.307C798.27 725.307 792.67 722.641 791.337 722.641" stroke="black" stroke-width="7.99928" stroke-linecap="round" stroke-linejoin="round"/>
<path d="M744.675 340.009C691.329 340.009 680.109 348.008 674.014 369.339C671.348 378.672 677.834 385.846 712.677 378.672C758.007 369.339 805.895 374.931 831.333 385.338C860.664 397.337 873.996 411.558 877.996 422.668L913.993 426.668C913.993 419.557 912.393 402.403 905.993 390.671C897.994 376.006 863.93 361.096 844.666 354.674C808.669 342.675 792.67 340.009 744.675 340.009Z" fill="#B5E3FB" stroke="black" stroke-width="7.99928" stroke-linecap="round" stroke-linejoin="round"/>
<path d="M948.656 346.675C937.99 334.943 909.548 356.007 896.66 368.006C886.884 376.45 872.263 385.338 868.663 397.337C864.663 410.669 859.33 410.669 853.998 426.668C848.665 442.666 911.109 486.446 915.325 490.662C917.992 493.328 935.324 514.66 940.656 518.659C944.502 521.544 973.987 553.323 980.653 551.99C987.319 550.656 1011.32 526.659 1013.98 513.326C1016.65 499.994 1024.65 463.998 1024.65 440C1024.65 416.002 961.988 361.34 948.656 346.675Z" fill="#DBD6D0" stroke="black" stroke-width="7.99928" stroke-linecap="round" stroke-linejoin="round"/>
<path d="M865.996 406.669C883.328 420.002 917.991 455.998 925.991 466.664C932.99 475.997 925.991 487.995 923.324 489.329C920.458 490.762 911.325 488.44 909.992 486.662" stroke="black" stroke-width="7.99928" stroke-linecap="round" stroke-linejoin="round"/>
<path d="M941.989 374.672C939.323 376.006 888.661 414.669 884.661 420.002" stroke="black" stroke-width="7.99928" stroke-linecap="round" stroke-linejoin="round"/>
<path d="M960.655 396.004C959.322 396.004 905.993 437.333 904.66 440" stroke="black" stroke-width="7.99928" stroke-linecap="round" stroke-linejoin="round"/>
<path d="M975.32 421.335C960.211 434.667 929.991 462.398 929.991 466.664C929.991 471.997 943.323 485.329 947.323 487.995C951.323 490.662 963.322 495.995 968.654 493.328C973.987 490.662 980.653 485.329 981.987 481.329C983.32 477.33 983.32 465.331 980.653 466.664M980.653 466.664C978.268 467.856 971.321 470.664 965.988 474.663M980.653 466.664L985.986 462.664L989.986 459.998" stroke="black" stroke-width="7.99928" stroke-linecap="round" stroke-linejoin="round"/>
<path d="M947.323 487.995C946.434 492.884 944.123 503.727 941.99 507.994C939.857 512.26 937.546 514.215 936.657 514.66" stroke="black" stroke-width="7.99928" stroke-linecap="round" stroke-linejoin="round"/>
<path d="M554.025 1451.91C540.693 1451.91 524.25 1451.46 519.361 1450.58L542.026 1497.24C544.692 1495.9 560.691 1494.57 572.69 1494.57C596.688 1494.57 628.347 1493.92 654.016 1490.57C684.68 1486.57 712.795 1479.97 751.34 1463.91C783.338 1450.58 803.78 1441.69 811.335 1435.91L794.003 1397.25C785.56 1400.36 770.005 1411.4 751.34 1418.58C731.342 1426.27 708.678 1434.58 651.349 1447.91C613.309 1456.76 571.408 1451.91 554.025 1451.91Z" fill="#2F1D07" stroke="black" stroke-width="7.99928" stroke-linecap="round" stroke-linejoin="round"/>
<path d="M607.354 1493.24C603.354 1493.24 596.688 1469.24 598.021 1453.24C609.131 1453.24 630.285 1451.64 636.684 1450.58C644.684 1449.24 666.015 1445.24 666.015 1445.24C666.015 1447.91 675.347 1470.57 682.013 1483.91C679.347 1485.24 678.014 1485.81 675.347 1486.57C666.015 1489.24 646.077 1491.01 638.017 1491.91C626.019 1493.24 614.853 1493.24 607.354 1493.24Z" fill="#F8E146" stroke="black" stroke-width="7.99928" stroke-linecap="round" stroke-linejoin="round"/>
<path d="M1799.25 1229.26C1780.58 1190.6 1736.58 1169.27 1717.92 1165.27C1717.03 1166.6 1713.65 1172.73 1712.59 1175.93C1711.52 1179.13 1720.14 1198.6 1724.59 1207.93C1737.92 1219.93 1766.18 1243.93 1772.58 1243.93C1778.98 1243.93 1793.91 1234.15 1799.25 1229.26Z" fill="#EAEAEA" stroke="black" stroke-width="7.99928" stroke-linecap="round" stroke-linejoin="round"/>
<path d="M1911.24 2651.8L1875.24 2594.47L1917.9 2573.14L1960.56 2641.13V2647.8L1911.24 2651.8Z" fill="#EAEAEA" stroke="black" stroke-width="7.99928" stroke-linecap="round" stroke-linejoin="round"/>
<path d="M1793.91 2713.13C1797.11 2705.66 1828.13 2682.91 1841.91 2671.8C1857.46 2660.24 1889.9 2636.6 1895.24 2634.47C1901.9 2631.8 1964.56 2627.8 1967.23 2630.47C1969.9 2633.14 1987.23 2698.46 1977.9 2703.8C1968.56 2709.13 1926.17 2714.44 1873.91 2718.46C1821.91 2722.46 1789.91 2722.46 1793.91 2713.13Z" fill="#EAEAEA" stroke="black" stroke-width="7.99928" stroke-linecap="round" stroke-linejoin="round"/>
<path d="M1515.27 2573.14L1477.94 2491.82L1523.27 2473.15L1561.93 2563.81V2573.14H1515.27Z" fill="#EAEAEA" stroke="black" stroke-width="7.99928" stroke-linecap="round" stroke-linejoin="round"/>
<path d="M1388.62 2630.47C1391.82 2626.2 1434.39 2598.47 1455.28 2585.14C1468.61 2575.36 1496.61 2555.28 1501.94 2553.14C1508.61 2550.48 1573.93 2553.14 1573.93 2555.81C1573.93 2558.48 1579.27 2618.47 1571.27 2627.8C1563.27 2637.14 1503.27 2633.14 1448.61 2634.47C1393.95 2635.8 1384.62 2635.8 1388.62 2630.47Z" fill="#EAEAEA" stroke="black" stroke-width="7.99928" stroke-linecap="round" stroke-linejoin="round"/>
<path d="M1353.95 2214.51C1369.95 2159.85 1539.27 2051.86 1627.26 1985.19L1877.9 1878.54C1885.46 1870.98 1905.37 1866.54 1924.57 1909.2C1948.33 1962 1934.19 1991.27 1915.79 2029.37L1915.23 2030.52C1896.57 2069.19 1867.24 2166.51 1855.24 2193.18C1843.24 2219.84 1799.25 2343.83 1801.91 2358.49C1804.58 2373.16 1919.23 2531.81 1928.57 2555.81C1937.9 2579.81 1937.9 2575.81 1928.57 2583.81C1925.7 2586.26 1885.9 2613.14 1872.57 2614.47C1859.24 2615.8 1765.92 2467.14 1732.58 2419.82C1691.26 2361.16 1697.92 2356.89 1703.25 2334.5C1709.92 2306.5 1753.92 2110.52 1759.25 2095.85C1763.83 2083.24 1767.25 2070.52 1767.25 2066.52C1767.25 2063.85 1733.92 2062.52 1719.25 2063.85C1704.59 2065.19 1716.59 2062.52 1683.26 2091.85C1650.21 2120.93 1471.27 2227.84 1459.28 2251.84C1447.28 2275.83 1553.93 2474.48 1537.94 2482.48C1511.62 2495.64 1472.61 2513.15 1467.28 2506.48C1461.94 2499.81 1337.95 2269.17 1353.95 2214.51Z" fill="#2F4368" stroke="black" stroke-width="7.99928" stroke-linecap="round" stroke-linejoin="round"/>
<path d="M1713.92 882.627C1712.14 872.405 1701.34 830.228 1697.92 823.965C1689.92 809.3 1657.72 741.69 1669.92 738.64C1680.59 735.973 1703.25 771.97 1707.25 773.303C1711.25 774.636 1692.59 678.645 1704.59 679.978C1712.67 680.876 1720.89 684.507 1726.83 726.557C1722.86 684.638 1725.45 673.752 1729.92 674.645C1735.93 675.849 1747.76 696.593 1748.69 742.757C1749.09 718.323 1750.57 675.56 1755.25 683.978C1761.92 695.977 1772.58 723.974 1769.91 766.637C1769.49 773.422 1777.91 699.977 1784.58 714.642C1791.25 729.307 1785.91 779.969 1781.91 794.635C1775.47 818.247 1767.48 838.211 1765.91 843.964C1761.92 858.629 1809.91 963.953 1817.91 983.951C1825.91 1003.95 1853.91 1054.61 1853.91 1087.94C1853.91 1121.27 1788.58 1213.26 1777.91 1229.26C1769.38 1242.06 1762.8 1250.59 1760.58 1253.26L1709.92 1214.6C1721.47 1195.04 1722.29 1189.27 1743.25 1157.27C1764.21 1125.27 1776.58 1110.61 1781.91 1091.94C1787.25 1073.28 1757.92 1014.61 1751.25 994.617C1744.58 974.619 1724.59 915.513 1713.92 882.627Z" fill="#F7C49D"/>
<path d="M1713.92 882.627C1712.14 872.405 1701.34 830.228 1697.92 823.965C1689.92 809.3 1657.72 741.69 1669.92 738.64C1680.59 735.973 1703.25 771.97 1707.25 773.303C1711.25 774.636 1692.59 678.645 1704.59 679.978C1714.19 681.045 1724 685.971 1729.92 754.638C1721.92 689.311 1724.59 673.579 1729.92 674.645C1736.58 675.979 1750.39 701.31 1748.58 758.638C1748.42 763.968 1748.58 671.979 1755.25 683.978C1761.92 695.977 1772.58 723.974 1769.91 766.637C1769.49 773.422 1777.91 699.977 1784.58 714.642C1791.25 729.307 1785.91 779.969 1781.91 794.635C1775.47 818.247 1767.48 838.211 1765.91 843.964C1761.92 858.629 1809.91 963.953 1817.91 983.951C1825.91 1003.95 1853.91 1054.61 1853.91 1087.94C1853.91 1121.27 1788.58 1213.26 1777.91 1229.26C1769.38 1242.06 1762.8 1250.59 1760.58 1253.26L1709.92 1214.6C1721.47 1195.04 1722.29 1189.27 1743.25 1157.27C1764.21 1125.27 1776.58 1110.61 1781.91 1091.94C1787.25 1073.28 1757.92 1014.61 1751.25 994.617C1744.58 974.619 1724.59 915.513 1713.92 882.627Z" stroke="black" stroke-width="7.99928" stroke-linecap="round" stroke-linejoin="round"/>
<path d="M1316.62 1585.23C1330.62 1569.23 1368.62 1517.24 1372.62 1519.9L1413.95 1566.57C1401.95 1581.23 1385.42 1600.69 1376.62 1621.23C1372.62 1630.56 1404.61 1638.56 1420.61 1643.89C1436.61 1649.22 1507.27 1675.89 1567.27 1702.55C1591.92 1713.51 1615.26 1706.11 1629.93 1706.55L1623.26 1807.88C1616.6 1816.32 1604.6 1828.41 1588.6 1841.21C1568.6 1857.21 1536.6 1855.87 1536.6 1853.21C1536.6 1848.94 1557.49 1834.99 1575.27 1827.87C1556.6 1833.65 1527.27 1838.54 1511.27 1833.21C1503.27 1830.54 1519.27 1813.78 1560.6 1811.88C1517.94 1813.84 1509.67 1819.88 1492.61 1809.21C1475.54 1798.54 1508.61 1795.88 1541.94 1795.88C1512.27 1795.88 1499.27 1790.81 1493.94 1781.21C1487.27 1769.21 1519.27 1777.21 1537.94 1775.88C1552.87 1774.81 1548.6 1763.55 1541.94 1758.55C1531.27 1750.55 1512.6 1743.88 1499.27 1738.55C1482.08 1731.67 1401.95 1706.55 1372.62 1694.55C1343.29 1682.55 1303.29 1670.56 1291.29 1649.22C1279.29 1627.89 1303.29 1600.47 1316.62 1585.23Z" fill="#F7C49D" stroke="black" stroke-width="7.99928" stroke-linecap="round" stroke-linejoin="round"/>
<path d="M1433.95 1413.25C1451.01 1394.05 1484.61 1382.14 1499.27 1378.58L1577.93 1297.26C1589.93 1292.81 1612.19 1269.82 1624.6 1255.93C1641.26 1237.26 1664.86 1221.08 1681.92 1202.6C1697.92 1185.27 1710.36 1173.27 1717.92 1165.27C1712.59 1194.6 1753.92 1227.93 1764.58 1230.6C1785.91 1235.93 1800.58 1223.93 1799.25 1230.6C1797.91 1237.26 1783.53 1254.38 1771.25 1271.92C1761.92 1285.26 1726.39 1330.02 1712.59 1359.92C1708.99 1367.71 1735.38 1395.91 1757.92 1438.58C1795.25 1509.24 1816.81 1542.74 1843.24 1613.23C1871.24 1687.89 1881.43 1713.22 1887.24 1733.22C1891.88 1749.22 1902.55 1789.24 1911.24 1822.54C1921.4 1861.53 1929.9 1890.54 1924.57 1901.2C1902.5 1945.34 1804.58 1970.53 1763.25 1985.19C1730.19 1996.93 1613.93 2007.86 1608.6 1999.86C1603.26 1991.86 1605.38 2001.53 1592.6 1875.87C1576.6 1718.55 1535.27 1621.23 1520.6 1577.23C1505.33 1531.42 1501.94 1507.9 1499.27 1503.9C1496.61 1499.9 1443.28 1581.23 1416.61 1591.9C1389.95 1602.56 1335.29 1546.57 1356.62 1515.9C1377.95 1485.24 1412.61 1437.24 1433.95 1413.25Z" fill="#FAF76B" stroke="black" stroke-width="7.99928" stroke-linecap="round" stroke-linejoin="round"/>
<path d="M1487.27 1478.57C1492.16 1486.57 1500.61 1504.7 1500.61 1507.9" stroke="black" stroke-width="7.99928" stroke-linecap="round" stroke-linejoin="round"/>
<path d="M1713.92 1355.92C1708.59 1361.25 1697.92 1370.58 1687.26 1381.25" stroke="black" stroke-width="7.99928" stroke-linecap="round" stroke-linejoin="round"/>
<path d="M1187.3 1090.61C1187.3 1122.76 1189.52 1135.05 1193.97 1137.27C1249.52 1158.16 1361.42 1199.93 1364.62 1199.93H1652.59C1660.59 1199.49 1662.76 1194.6 1675.26 1154.6C1685.26 1122.61 1679.26 1073.28 1661.92 1018.61C1647.97 974.618 1605.93 919.957 1547.27 893.292C1488.61 866.628 1420.61 859.962 1375.28 867.961C1329.95 875.961 1308.23 877.825 1269.96 910.624C1251.3 926.623 1223.3 962.62 1212.63 979.951C1195.37 1007.99 1187.3 1050.61 1187.3 1090.61Z" fill="#87501F" stroke="black" stroke-width="7.99928" stroke-linecap="round" stroke-linejoin="round"/>
<path d="M1392.62 957.287C1269.96 963.953 1217.97 1061.28 1216.63 1066.61C1175.04 1142.34 1189.97 1237.26 1215.3 1291.92C1268.63 1395.91 1379.28 1435.91 1492.61 1393.25C1580.68 1360.09 1618.82 1295.92 1625.93 1265.26C1657.93 1255.93 1672.59 1229.26 1669.92 1205.26C1667.79 1186.07 1646.82 1173.27 1636.59 1169.27C1634.46 1085.01 1593.04 1027.5 1572.6 1009.28C1553.49 989.728 1490.74 951.954 1392.62 957.287Z" fill="#F7C49D"/>
<path d="M1636.59 1169.27C1634.46 1085.01 1593.04 1027.5 1572.6 1009.28C1553.49 989.728 1490.74 951.954 1392.62 957.287C1269.96 963.953 1217.97 1061.28 1216.63 1066.61C1175.04 1142.34 1189.97 1237.26 1215.3 1291.92C1268.63 1395.91 1379.28 1435.91 1492.61 1393.25C1580.68 1360.09 1618.82 1295.92 1625.93 1265.26C1657.93 1255.93 1672.59 1229.26 1669.92 1205.26C1667.79 1186.07 1646.82 1173.27 1636.59 1169.27ZM1636.59 1169.27C1633.48 1169.27 1625.13 1170.07 1616.6 1173.27" stroke="black" stroke-width="7.99928" stroke-linecap="round" stroke-linejoin="round"/>
<path d="M1441.94 1269.26C1407.81 1289.52 1352.62 1279.92 1340.62 1281.26C1328.62 1282.59 1325.46 1294.59 1324.62 1307.92C1323.29 1329.25 1338.48 1343.54 1353.95 1355.92C1375.28 1372.98 1403.28 1391.26 1476.61 1370.58C1517.94 1358.93 1532.16 1321.25 1528.6 1294.59C1526.47 1278.59 1505.94 1246.59 1489.94 1246.59C1472.4 1246.59 1461.94 1257.38 1441.94 1269.26Z" fill="#720000" stroke="black" stroke-width="7.99928" stroke-linecap="round" stroke-linejoin="round"/>
<path d="M1551.27 1125.27C1551.27 1167.24 1517.24 1201.26 1475.28 1201.26C1433.4 1201.26 1399.44 1167.39 1399.28 1125.56C1401.89 1107.74 1410.48 1088.61 1423.68 1073.95C1436.92 1059.26 1454.57 1049.28 1475.28 1049.28C1517.24 1049.28 1551.27 1083.3 1551.27 1125.27Z" fill="#FEFEFE" stroke="black" stroke-width="7.99928"/>
<path d="M1317.8 1225.48C1281.88 1247.2 1235.16 1235.69 1213.45 1199.77C1191.78 1163.94 1203.19 1117.35 1238.91 1095.57C1255.51 1088.58 1276.33 1086.04 1295.7 1089.75C1315.12 1093.47 1332.79 1103.42 1343.51 1121.13C1365.22 1157.05 1353.71 1203.77 1317.8 1225.48Z" fill="#FEFEFE" stroke="black" stroke-width="7.99928"/>
<ellipse cx="1241.16" cy="1127.06" rx="9.33249" ry="6.66607" transform="rotate(-23.0384 1241.16 1127.06)" fill="black"/>
<path d="M1455.18 1082.27C1456.74 1086.26 1453.47 1091.26 1447.89 1093.44C1442.31 1095.62 1436.52 1094.15 1434.96 1090.16C1433.41 1086.17 1439.28 1082.27 1442.25 1079C1447.84 1076.82 1453.62 1078.29 1455.18 1082.27Z" fill="black"/>
<path d="M1381.95 1203.93C1341.95 1241.26 1381.95 1267.93 1409.95 1226.6" stroke="black" stroke-width="7.99928" stroke-linecap="round" stroke-linejoin="round"/>
<path d="M1485.94 1229.26C1513.94 1229.26 1549.93 1242.59 1545.94 1303.92" stroke="black" stroke-width="7.99928" stroke-linecap="round" stroke-linejoin="round"/>
<path d="M1364.62 1298.59C1357.95 1298.59 1357.06 1288.37 1357.95 1282.59H1376.62C1376.62 1298.59 1371.28 1298.59 1364.62 1298.59Z" fill="#FEFEFE" stroke="black" stroke-width="7.99928" stroke-linecap="round" stroke-linejoin="round"/>
<path d="M1393.95 1298.59C1387.28 1299.92 1384.02 1288.37 1384.9 1282.59H1403.57C1403.57 1298.59 1400.61 1297.26 1393.95 1298.59Z" fill="#FEFEFE" stroke="black" stroke-width="7.99928" stroke-linecap="round" stroke-linejoin="round"/>
<path d="M1423.28 1294.59C1416.61 1294.59 1415.72 1285.7 1416.61 1279.92L1436.61 1273.26C1436.61 1289.26 1429.95 1294.59 1423.28 1294.59Z" fill="#FEFEFE" stroke="black" stroke-width="7.99928" stroke-linecap="round" stroke-linejoin="round"/>
<path d="M1452.9 1279.92C1446.23 1279.92 1446.39 1272.37 1447.28 1266.59L1465.94 1254.59C1465.94 1270.59 1459.56 1279.92 1452.9 1279.92Z" fill="#FEFEFE" stroke="black" stroke-width="7.99928" stroke-linecap="round" stroke-linejoin="round"/>
<path d="M1483.27 1327.92C1494.74 1327.92 1505.94 1329.25 1521.94 1331.92C1521.94 1331.92 1512.6 1345.25 1509.94 1349.25C1507.27 1353.25 1496.61 1359.92 1496.61 1359.92C1489.94 1359.92 1482.46 1357.74 1469.94 1350.58C1460.61 1345.25 1458.28 1339.92 1459.28 1335.92C1460.61 1330.59 1471.81 1327.92 1483.27 1327.92Z" fill="#B93E5A" stroke="black" stroke-width="7.99928" stroke-linecap="round" stroke-linejoin="round"/>
<path d="M1291.29 1045.28C1269.96 1048.39 1223.03 1060.21 1216.63 1066.61" stroke="black" stroke-width="7.99928" stroke-linecap="round" stroke-linejoin="round"/>
<path d="M1423.28 1019.95C1425.95 1017.28 1473.94 1007.95 1507.27 1017.28" stroke="black" stroke-width="7.99928" stroke-linecap="round" stroke-linejoin="round"/>
<path d="M1720.59 791.968C1733.92 794.635 1745.92 814.633 1745.92 825.299" stroke="black" stroke-width="7.99928" stroke-linecap="round" stroke-linejoin="round"/>
<path d="M1777.91 2041.19C1775.25 2051.86 1770.72 2064.65 1768.58 2067.85" stroke="black" stroke-width="7.99928" stroke-linecap="round" stroke-linejoin="round"/>
<path d="M1377.95 1618.56C1373.95 1623.89 1371.28 1626.56 1364.62 1635.89" stroke="black" stroke-width="7.99928" stroke-linecap="round" stroke-linejoin="round"/>
<path d="M1781.91 1078.61C1784.58 1089.27 1788.85 1099.94 1789.91 1105.27" stroke="black" stroke-width="7.99928" stroke-linecap="round" stroke-linejoin="round"/>
<path d="M1801.91 2354.49L1796.58 2374.49" stroke="black" stroke-width="7.99928" stroke-linecap="round" stroke-linejoin="round"/>
<path d="M1461.94 2247.84C1457.94 2251.84 1439.28 2267.84 1439.28 2269.17" stroke="black" stroke-width="7.99928" stroke-linecap="round" stroke-linejoin="round"/>
<path d="M1548.6 1769.21C1549.93 1766.1 1552.87 1758.28 1553.93 1751.88" stroke="black" stroke-width="7.99928" stroke-linecap="round" stroke-linejoin="round"/>
</svg>
